<?xml version="1.0" standalone="no"?>
<!DOCTYPE svg PUBLIC "-//W3C//DTD SVG 1.1//EN" "http://www.w3.org/Graphics/SVG/1.1/DTD/svg11.dtd" >
<svg xmlns="http://www.w3.org/2000/svg" xmlns:xlink="http://www.w3.org/1999/xlink" version="1.1">
<metadata></metadata>
<defs>
<font id="heavitasregular" horiz-adv-x="1140" >
<font-face units-per-em="2048" ascent="1536" descent="-512" />
<missing-glyph horiz-adv-x="497" />
<glyph horiz-adv-x="0" />
<glyph unicode="&#xd;" horiz-adv-x="497" />
<glyph horiz-adv-x="0" />
<glyph horiz-adv-x="0" />
<glyph unicode=" "  horiz-adv-x="497" />
<glyph unicode="&#x09;" horiz-adv-x="497" />
<glyph unicode="&#xa0;" horiz-adv-x="497" />
<glyph unicode="!" horiz-adv-x="426" d="M43 1028q-1 16 8.5 25.5t25.5 9.5h243q14 0 24 -9.5t8 -25.5l-37 -627q-1 -14 -11.5 -24.5t-24.5 -10.5h-161q-16 0 -26 10.5t-12 24.5zM55 35v201q0 16 9.5 25.5t25.5 9.5h218q14 0 24.5 -10t10.5 -25v-201q0 -14 -10.5 -24.5t-24.5 -10.5h-218q-16 0 -25.5 10.5 t-9.5 24.5z" />
<glyph unicode="&#x22;" horiz-adv-x="691" d="M21 1042q-2 14 7.5 25t24.5 11h219q14 0 23.5 -10.5t8.5 -25.5l-24 -321q-1 -14 -12 -24t-25 -10h-160q-14 0 -25 9.5t-13 24.5zM358 1042q-2 14 7.5 25t24.5 11h218q14 0 23.5 -10.5t8.5 -25.5l-25 -321q-2 -14 -13 -24t-25 -10h-160q-14 0 -25 9.5t-12 24.5z" />
<glyph unicode="#" horiz-adv-x="1244" d="M-7 273l71 193q6 13 19 22.5t29 9.5h105q14 0 27 10t19 24l9 25q6 12 -0.5 22t-21.5 10h-102q-16 0 -21.5 9.5t-0.5 22.5l74 180q5 13 18 23t29 10h102q15 0 28.5 9t17.5 24q17 40 34.5 84.5t32.5 82.5q6 13 19 22.5t29 9.5h194q14 0 20.5 -9.5t1.5 -22.5l-66 -167 q-4 -14 1.5 -23.5t22.5 -9.5h42q14 0 28 9t20 22q16 42 33 86t34 83q5 13 18.5 22.5t28.5 9.5h195q15 0 21.5 -9.5t0.5 -22.5l-67 -167q-6 -14 0 -23.5t22 -9.5h108q14 0 20.5 -10t0.5 -23l-71 -178q-5 -15 -19 -24.5t-29 -9.5h-109q-16 0 -29 -9.5t-18 -22.5l-8 -25 q-6 -14 0.5 -24t22.5 -10h105q14 0 20.5 -9t1.5 -23l-73 -193q-5 -14 -18.5 -23.5t-28.5 -9.5h-105q-16 0 -28.5 -9.5t-18.5 -22.5q-18 -42 -37 -88t-34 -87q-4 -14 -18.5 -23.5t-28.5 -9.5h-193q-16 0 -22 9.5t-2 23.5l69 175q5 13 -1.5 22.5t-20.5 9.5h-45 q-16 0 -29.5 -9.5t-18.5 -22.5l-69 -175q-4 -14 -18 -23.5t-28 -9.5h-192q-16 0 -22 9.5t-2 23.5l68 175q6 13 -1 22.5t-21 9.5h-102q-16 0 -22.5 9.5t-0.5 23.5zM513 529q-5 -18 2.5 -29.5t26.5 -11.5h54q18 0 34.5 12t22.5 29l12 30q5 17 -3.5 28.5t-26.5 11.5h-52 q-18 0 -34.5 -11.5t-23.5 -28.5z" />
<glyph unicode="$" horiz-adv-x="988" d="M30.5 173.5q-1.5 15.5 7.5 27.5l112 161q8 11 22.5 14.5t27.5 -4.5q78 -51 155 -80t143 -29q64 0 98 18.5t34 54.5q0 19 -14.5 29.5t-39 18t-56.5 12t-65 11.5q-32 6 -75 14t-88 23t-89.5 38.5t-79 60t-55.5 86.5t-21 119q0 66 18 117.5t50 90.5t73.5 63.5t89.5 40.5 q14 4 23.5 16.5t9.5 26.5v46q0 14 10.5 24.5t24.5 10.5h216q14 0 24 -10.5t10 -24.5v-39q0 -14 10 -27t25 -16q125 -32 237 -122q12 -9 13.5 -23.5t-7.5 -25.5l-114 -162q-8 -11 -22.5 -14t-26.5 6q-74 46 -138 66t-118 20q-16 0 -37 -1t-40 -6.5t-31.5 -16.5t-12.5 -32 q0 -20 30.5 -36t70 -28t76 -18.5t46.5 -7.5q52 -10 114.5 -30t117 -58t91.5 -100t37 -155q0 -143 -77.5 -221.5t-208.5 -101.5q-14 -3 -24.5 -14.5t-10.5 -25.5v-43q0 -14 -10 -24.5t-24 -10.5h-216q-14 0 -24.5 10.5t-10.5 24.5v60q0 14 -9 27.5t-24 17.5q-70 21 -128 54 t-107 72q-11 10 -12.5 25.5z" />
<glyph unicode="%" horiz-adv-x="1458" d="M25 750q0 70 22.5 129t62.5 102t94.5 66.5t118.5 23.5t118.5 -23.5t93.5 -66.5t61.5 -102t22.5 -129q0 -68 -22.5 -127t-62.5 -101.5t-94 -67t-117 -24.5q-64 0 -118.5 24.5t-94.5 67t-62.5 101t-22.5 127.5zM285 750q0 -4 0.5 -20t5 -32t12 -29t20.5 -13q10 0 17 9 t11.5 23t7 31t2.5 31q0 13 -2.5 29t-7 30.5t-11.5 24t-17 9.5q-13 0 -20.5 -12t-12 -27.5t-5 -31.5t-0.5 -22zM306.5 9q-5.5 9 1.5 22l601 1006q7 11 22 20t30 9h171q15 0 20 -8.5t-2 -20.5l-599 -1006q-7 -13 -22.5 -22t-30.5 -9h-172q-14 0 -19.5 9zM836 301 q0 70 22.5 128t62.5 101t94.5 67t118.5 24t118.5 -24t94 -67t62 -101t22.5 -128q0 -68 -22.5 -127t-62.5 -102t-94.5 -68t-117.5 -25q-64 0 -118.5 24.5t-94.5 67.5t-62.5 101.5t-22.5 128.5zM1096 301q0 -4 1 -20t5.5 -32t11.5 -29t20 -13q10 0 17.5 9t12 23t6.5 30.5 t2 31.5q0 13 -2 29.5t-6.5 30.5t-11.5 24t-18 10q-13 0 -20 -12t-11.5 -28t-5.5 -32t-1 -22z" />
<glyph unicode="&#x26;" horiz-adv-x="995" d="M23 256q-11 91 24 159.5t104 126.5q3 3 7 6q6 4 18 14q11 8 12.5 22t-5.5 27q-59 101 -46 213q7 57 34 104.5t67 80.5t91 52.5t106 19.5q84 0 158 -41.5t109 -120.5q24 -53 25 -105t-14 -100t-45.5 -90.5t-71.5 -73.5q-11 -9 -13 -21.5t9 -23.5l23 -22q10 -12 22.5 -9.5 t19.5 13.5q15 25 27.5 46.5t19.5 38.5q7 12 20 17.5t28 -0.5l158 -70q13 -6 18.5 -19t-1.5 -26q-15 -26 -40.5 -69t-59.5 -93q-8 -11 -7.5 -27t10.5 -26q25 -26 49 -51.5t46 -50.5q10 -11 9.5 -25t-12.5 -23l-132 -116q-12 -10 -27 -9.5t-25 10.5l-78 80q-11 11 -25 11.5 t-26 -10.5q-35 -30 -69 -47.5t-66 -27.5t-60 -13t-52 -3q-144 0 -234 74t-105 198zM273 285q6 -34 26.5 -51t46.5 -21t54.5 4t50.5 24q11 9 10.5 24t-10.5 28l-85 87q-10 11 -26 13t-28 -6q-19 -11 -32.5 -35.5t-6.5 -66.5zM378 804q-3 -16 1.5 -35t11.5 -36q6 -13 21 -17.5 t27 4.5q26 18 37 42.5t9.5 46.5t-15 37.5t-37.5 15.5q-18 0 -34 -13.5t-21 -44.5z" />
<glyph unicode="'" horiz-adv-x="334" d="M16 1042q-1 14 8 25t24 11h220q14 0 23.5 -10.5t8.5 -25.5l-24 -321q-1 -14 -12 -24t-25 -10h-160q-14 0 -25.5 9.5t-13.5 24.5z" />
<glyph unicode="(" horiz-adv-x="573" d="M22 532q0 121 21.5 219t64.5 181t107.5 154t150.5 137q12 8 26.5 6.5t23.5 -13.5l122 -160q9 -12 6.5 -26.5t-13.5 -23.5q-106 -86 -163.5 -205t-57.5 -269q0 -158 53.5 -271t167.5 -199q11 -8 13.5 -22.5t-6.5 -26.5l-122 -163q-8 -11 -23 -13t-27 6q-81 61 -145 129 t-108.5 150.5t-67.5 182.5t-23 227z" />
<glyph unicode=")" horiz-adv-x="573" d="M34 39q2 15 14 23q114 86 168.5 198.5t54.5 271.5q0 150 -58.5 269t-164.5 205q-11 9 -13.5 23.5t5.5 26.5l123 160q8 11 23 13t26 -6q86 -66 150.5 -137t108.5 -154t65.5 -181t21.5 -219q0 -126 -23 -226.5t-67.5 -183t-109 -150.5t-146.5 -129q-11 -8 -25.5 -6 t-23.5 13l-123 163q-8 11 -6 26z" />
<glyph unicode="*" horiz-adv-x="631" d="M0 794l50 147q4 13 16.5 19t26.5 0l71 -33q13 -6 22 -0.5t7 19.5l-6 81q-1 16 8.5 25t25.5 9h157q14 0 24 -9.5t8 -24.5l-7 -88q-2 -14 7 -20t22 1l73 38q13 8 25 2t17 -19l48 -147q4 -13 -2.5 -25.5t-20.5 -15.5l-82 -20q-14 -3 -17 -12.5t7 -21.5l61 -66 q10 -12 8.5 -24.5t-14.5 -21.5l-135 -89q-12 -7 -25.5 -3.5t-20.5 15.5l-40 70q-7 13 -16.5 13t-17.5 -13l-37 -68q-7 -13 -20.5 -17t-26.5 3l-135 89q-11 9 -13.5 21.5t7.5 24.5l63 68q10 11 7 20.5t-17 12.5l-85 19q-14 3 -20.5 15.5t-2.5 25.5z" />
<glyph unicode="+" horiz-adv-x="824" d="M26 445v196q0 16 10.5 25.5t25.5 9.5h171q16 0 25.5 10.5t9.5 24.5v176q0 16 10 25.5t24 9.5h206q16 0 25 -9.5t9 -25.5v-176q0 -14 10.5 -24.5t24.5 -10.5h172q16 0 25.5 -9.5t9.5 -25.5v-196q0 -14 -9.5 -24.5t-25.5 -10.5h-172q-14 0 -24.5 -9.5t-10.5 -25.5v-174 q0 -14 -9.5 -25t-24.5 -11h-206q-14 0 -24 10.5t-10 25.5v174q0 16 -10 25.5t-25 9.5h-171q-16 0 -26 10t-10 25z" />
<glyph unicode="," horiz-adv-x="345" d="M19 131q-1 30 9 58.5t29.5 50t46.5 33.5t57 13q57 3 98.5 -30.5t54.5 -87.5q4 -13 6 -28.5t2 -31.5q0 -39 -14.5 -79t-41.5 -75.5t-68 -63.5t-94 -44q-12 -6 -26 1t-20 21l-32 75q-7 13 -1 26t18 20l10.5 3.5t8.5 3.5q27 11 3 32q-42 36 -46 103z" />
<glyph unicode="-" horiz-adv-x="594" d="M31 448v196q0 16 10 25.5t24 9.5h464q14 0 24.5 -9.5t10.5 -25.5v-196q0 -14 -10.5 -24.5t-24.5 -10.5h-464q-14 0 -24 10t-10 25z" />
<glyph unicode="." horiz-adv-x="337" d="M16 140q0 30 11.5 56t32 46.5t47 32t57.5 11.5t58.5 -11.5t48 -32t32 -46.5t11.5 -56q0 -31 -11.5 -58.5t-32 -48t-48 -32t-58.5 -11.5t-57.5 11.5t-47 32t-32 48t-11.5 58.5z" />
<glyph unicode="/" horiz-adv-x="824" d="M-38 -148l604 1316q7 13 21 21.5t28 8.5h215q14 0 21 -8.5t0 -21.5l-604 -1316q-6 -13 -20.5 -22.5t-28.5 -9.5h-216q-14 0 -19.5 9.5t-0.5 22.5z" />
<glyph unicode="0" horiz-adv-x="1085" d="M33 531q0 122 35 223t99 173.5t152 113t196 40.5q104 0 192 -41.5t152 -115t100.5 -174t36.5 -219.5q0 -109 -32.5 -207t-93.5 -171q-67 -85 -159 -129.5t-196 -44.5q-110 0 -201.5 45.5t-156.5 128.5q-61 73 -92.5 171t-31.5 207zM324 531q0 -48 11.5 -96.5t35 -88 t59 -64.5t85.5 -25q35 0 68 18t60 52.5t44 85.5t17 118q0 60 -15 117t-42 92q-56 64 -132 64q-34 0 -68 -16t-61 -49.5t-44.5 -85t-17.5 -122.5z" />
<glyph unicode="1" horiz-adv-x="645" d="M-18.5 699q-0.5 15 11.5 25l336 318q10 10 27 17t32 7h120q14 0 24 -10.5t10 -24.5v-996q0 -14 -10 -24.5t-24 -10.5h-218q-15 0 -25.5 10.5t-10.5 24.5v505q0 14 -7 18t-17 -7q-11 -10 -20.5 -19.5t-19.5 -18.5q-10 -10 -23.5 -10t-23.5 12l-152 159q-9 10 -9.5 25z" />
<glyph unicode="2" horiz-adv-x="932" d="M42 753q18 49 50 106t79.5 106.5t112.5 82.5t148 33q98 0 171 -31.5t121 -82t71.5 -113.5t23.5 -126q0 -62 -15.5 -113.5t-44.5 -97.5t-70.5 -87.5t-92.5 -83.5q-14 -13 -21.5 -18.5t-12.5 -10.5t-12.5 -10.5t-21.5 -16.5q-12 -9 -10 -15.5t17 -6.5h260q14 0 24.5 -10.5 t10.5 -24.5v-198q0 -14 -10 -24.5t-25 -10.5h-699q-14 0 -24.5 10.5t-10.5 24.5v190q0 14 7 31t19 27q79 66 134 112t93 78t63.5 52t44.5 37q36 30 58 53t32.5 42.5t13.5 36.5t3 34q0 49 -31.5 66.5t-65.5 17.5q-22 0 -40.5 -14t-32 -33.5t-23.5 -42.5t-16 -40 q-4 -12 -16.5 -19.5t-27.5 -5.5l-211 54q-14 4 -20.5 16.5t-2.5 25.5z" />
<glyph unicode="3" horiz-adv-x="871" d="M22 297q-4 14 2.5 25.5t20.5 14.5l186 43q15 3 26 -5.5t15 -20.5q4 -17 13 -35t25 -33t39.5 -26.5t57.5 -11.5q50 0 74.5 26t24.5 52q0 47 -22.5 71.5t-54.5 35.5t-68.5 11t-62.5 -3q-14 -2 -23.5 7t-9.5 23v123q0 14 9 23.5t26 9.5q30 -1 76 3t86 25q22 11 38 34.5 t13 53.5q-7 78 -106 77q-34 0 -57 -10.5t-39 -25t-25.5 -31.5t-13.5 -32q-10 -32 -41 -27l-184 40q-14 3 -21 15.5t-3 25.5q18 49 47 103t75.5 100.5t110.5 78t151 31.5q106 0 180.5 -30.5t120 -78.5t66 -107t20.5 -116q0 -48 -12 -83t-30 -59.5t-39.5 -40t-43.5 -23.5 q-28 -12 0 -25q22 -10 43.5 -28t39.5 -44.5t30 -60.5t12 -78q0 -17 -2 -39t-9.5 -48t-21 -55t-35.5 -57q-32 -40 -72.5 -66t-82.5 -40.5t-84.5 -20.5t-79.5 -6q-87 0 -152.5 31.5t-111.5 79t-75 102.5t-46 102z" />
<glyph unicode="4" horiz-adv-x="976" d="M43 247v158q0 15 7 32.5t17 28.5l488 573q9 12 26 19.5t31 7.5h144q16 0 25.5 -10t9.5 -25v-516q0 -14 10.5 -24.5t24.5 -10.5h48q16 0 25.5 -10.5t9.5 -24.5v-198q0 -14 -9.5 -24.5t-25.5 -10.5h-48q-14 0 -24.5 -10t-10.5 -24v-143q0 -14 -9.5 -24.5t-25.5 -10.5h-218 q-14 0 -24.5 10.5t-10.5 24.5v143q0 14 -9.5 24t-25.5 10h-389q-14 0 -25 10.5t-11 24.5zM399.5 489.5q5.5 -9.5 22.5 -9.5h42q16 0 27.5 12.5t11.5 27.5v92q0 16 -6.5 18.5t-16.5 -11.5l-76 -106q-10 -14 -4.5 -23.5z" />
<glyph unicode="5" horiz-adv-x="895" d="M12 196.5q-1 14.5 10 25.5l119 127q10 10 22.5 9.5t23.5 -11.5q13 -13 33 -29t47.5 -30.5t61 -24t74.5 -9.5q69 0 107 36.5t38 92.5q0 22 -7 43.5t-22.5 40.5t-41.5 32.5t-62 16.5q-56 4 -89 -11t-60 -37q-11 -10 -28 -13t-30 3l-131 51q-14 4 -22 18t-5 28l88 477 q3 15 14.5 24.5t26.5 9.5h548q14 0 24.5 -10t10.5 -25v-200q0 -14 -10.5 -24t-24.5 -10h-311q-14 0 -25 -8.5t-15 -20.5q-3 -12 5.5 -19.5t22.5 -3.5q10 1 19 1h16q182 0 282 -102t100 -286q0 -80 -31.5 -152t-92.5 -126q-56 -47 -127.5 -73t-147.5 -26q-70 0 -128 16.5 t-107 43.5t-89 61.5t-75 69.5q-10 10 -11 24.5z" />
<glyph unicode="6" horiz-adv-x="943" d="M31 395q0 52 11.5 100.5t32.5 99.5q10 25 42.5 75t75.5 111.5t90 129t90 127.5q8 11 25 19.5t31 8.5h287q14 0 17.5 -8t-3.5 -20l-185 -253q-8 -11 -4 -20.5t18 -12.5q138 -24 216 -126.5t80 -254.5q0 -53 -8.5 -95t-24 -75t-34.5 -59t-36 -43q-38 -38 -80 -61.5 t-84.5 -35.5t-81 -16.5t-65.5 -4.5q-63 0 -120.5 16.5t-106.5 46.5t-86.5 72t-59.5 95q-16 39 -26.5 90t-10.5 94zM323 369q0 -25 9.5 -46.5t26 -37.5t39 -25.5t49.5 -9.5q26 0 48.5 9.5t39 25.5t27 37.5t10.5 46.5t-10.5 46.5t-27 38.5t-39 26.5t-48.5 9.5 q-27 0 -49.5 -9.5t-39 -26.5t-26 -38.5t-9.5 -46.5z" />
<glyph unicode="7" horiz-adv-x="873" d="M28 831v200q0 14 9.5 24.5t24.5 10.5h720q15 0 25 -10.5t10 -24.5v-178q0 -14 -5 -33t-13 -32l-424 -757q-7 -12 -21.5 -21.5t-29.5 -9.5h-262q-16 0 -20 9.5t3 21.5l423 735q7 13 2 22t-19 9h-389q-16 0 -25 10t-9 24z" />
<glyph unicode="8" horiz-adv-x="902" d="M22 339q0 61 25 114t67 92q11 10 11.5 24t-6.5 26q-25 33 -43 76t-18 85q0 70 29 129t79.5 102.5t117.5 67.5t143 24t143.5 -24t117.5 -67.5t79.5 -102.5t29.5 -129q0 -47 -15.5 -88.5t-40.5 -75.5q-18 -25 4 -50q39 -39 64 -92t25 -111q0 -92 -32.5 -158.5t-87.5 -111 t-128.5 -66.5t-158.5 -22q-83 0 -157 22t-129 66.5t-87 111t-32 158.5zM312 339q0 -53 34.5 -76t80.5 -23q47 0 82 23t35 76q0 20 -9.5 38t-25.5 31.5t-37 21t-45 7.5q-46 0 -80.5 -28t-34.5 -70zM347 737q0 -31 23.5 -51t56.5 -20q34 0 57.5 20t23.5 51q0 40 -23.5 61 t-57.5 21q-33 0 -56.5 -21t-23.5 -61z" />
<glyph unicode="9" horiz-adv-x="954" d="M48 695q0 103 33 169.5t70 102.5q36 38 79 61.5t85.5 35.5t80 16.5t65.5 4.5q93 0 168.5 -32.5t129.5 -89.5t84 -132.5t30 -160.5q0 -89 -33 -171t-83.5 -160t-110.5 -154.5t-117 -155.5q-9 -11 -25 -20t-30 -9h-287q-14 0 -18.5 9t4.5 20l185 253q8 11 3.5 20.5 t-18.5 12.5q-68 13 -123 49.5t-92.5 88.5t-58.5 114.5t-21 127.5zM333 697q0 -25 9.5 -47.5t26.5 -38.5t39 -25.5t49 -9.5q26 0 48.5 9.5t39.5 25.5t26.5 38.5t9.5 47.5q0 63 -36.5 92.5t-87.5 29.5q-52 0 -88 -30t-36 -92z" />
<glyph unicode=":" horiz-adv-x="345" d="M21 140q0 30 11 56t31 46.5t47.5 32t58.5 11.5t58 -11.5t47.5 -32t32.5 -46.5t12 -56q0 -31 -12 -58.5t-32.5 -48t-47.5 -32t-58 -11.5t-58.5 11.5t-47.5 32t-31 48t-11 58.5zM21 509q0 31 11 58.5t31 47.5t47.5 32t58.5 12t58 -12t47.5 -32t32.5 -47.5t12 -58.5 q0 -30 -12 -57t-32.5 -47.5t-47.5 -32t-58 -11.5t-58.5 11.5t-47.5 32t-31 47.5t-11 57z" />
<glyph unicode=";" horiz-adv-x="358" d="M25 131q-3 62 39 105t104 46q36 1 66.5 -12.5t51.5 -37.5t32.5 -56t11.5 -68q0 -96 -53.5 -171t-162.5 -120q-15 -6 -30.5 -1t-23.5 16l-27 39q-8 11 -6 25.5t12 24.5q16 14 29.5 29t23.5 29q8 12 3 23.5t-16 20.5q-25 17 -38 45.5t-16 62.5zM25 509q0 31 11.5 58.5 t31 47.5t47.5 32t58 12q31 0 58.5 -12t48 -32t32 -47.5t11.5 -58.5q0 -30 -11.5 -57t-32 -47.5t-48 -32t-58.5 -11.5q-30 0 -58 11.5t-47.5 32t-31 47.5t-11.5 57z" />
<glyph unicode="&#x3c;" horiz-adv-x="803" d="M36 447v164q0 14 9 29t22 20l627 294q12 7 22 0.5t10 -20.5v-235q0 -14 -10 -28t-22 -19l-252 -110q-14 -7 -14.5 -14.5t14.5 -12.5l250 -108q14 -7 24 -21t10 -28v-236q0 -14 -10 -20t-22 0l-627 295q-13 7 -22 21t-9 29z" />
<glyph unicode="=" horiz-adv-x="816" d="M35 272v182q0 16 10 25t25 9h631q14 0 24.5 -9t10.5 -25v-182q0 -14 -10.5 -24.5t-24.5 -10.5h-631q-15 0 -25 10t-10 25zM35 604v181q0 17 10 26t25 9h631q14 0 24.5 -9.5t10.5 -25.5v-181q0 -15 -10.5 -25t-24.5 -10h-631q-15 0 -25 10t-10 25z" />
<glyph unicode="&#x3e;" horiz-adv-x="803" d="M36 122v236q0 14 9.5 28t22.5 21l251 108q13 5 13 12.5t-13 14.5l-251 110q-13 5 -22.5 19t-9.5 28v235q0 14 9.5 20.5t22.5 -0.5l626 -294q12 -5 22 -20t10 -29v-164q0 -15 -10 -29t-22 -21l-626 -295q-13 -6 -22.5 0t-9.5 20z" />
<glyph unicode="?" horiz-adv-x="839" d="M-19 772q10 39 30.5 93t65.5 104.5t120.5 85t196.5 34.5q61 0 108.5 -10t84.5 -27t63 -37t44 -39q40 -45 63 -93.5t23 -108.5q0 -77 -19.5 -123.5t-47.5 -75t-63 -45.5t-66.5 -33t-55.5 -38t-31 -59q-3 -14 -12 -24.5t-26 -10.5h-220q-15 0 -25 10.5t-10 24.5 q1 51 15.5 90t40 70.5t63.5 56t89 46.5q47 21 64 38.5t17 50.5q0 3 -1 14t-9.5 22t-29.5 21t-62 10q-47 0 -76.5 -11t-49 -28.5t-30.5 -40t-20 -44.5q-6 -13 -19 -19.5t-27 -2.5l-165 54q-13 6 -20 18.5t-3 26.5zM205 35v201q0 14 10 24.5t25 10.5h218q16 0 25.5 -10.5 t9.5 -24.5v-201q0 -14 -9.5 -24.5t-25.5 -10.5h-218q-14 0 -24.5 10.5t-10.5 24.5z" />
<glyph unicode="@" horiz-adv-x="1231" d="M50 537q0 109 36 206.5t104 170.5q76 84 179.5 126.5t228.5 42.5q128 0 229.5 -30.5t174.5 -92.5q155 -131 155 -374q0 -247 -119 -336q-29 -21 -62.5 -28.5t-67.5 -5t-66 14.5t-55 32q-12 10 -26.5 11t-26.5 -6q-30 -24 -69 -39t-86 -15q-135 0 -212 83.5t-77 227.5 q0 69 21 126t59 98t91.5 63.5t118.5 22.5q48 0 79 -11q32 -10 32 -4q0 4 10 6.5t25 2.5h113q17 0 26 -9.5t9 -25.5v-335q0 -11 1.5 -25t5.5 -26q4 -14 24 -19t30 5q21 19 31 68.5t10 123.5q0 162 -92 240q-48 39 -119 61t-167 22q-95 0 -164 -33t-114 -85.5t-66 -119 t-21 -134.5q0 -64 13 -133.5t50 -127.5t103 -95t173 -37q87 0 142 16t83 32q11 7 26.5 5.5t24.5 -11.5l65 -74q10 -11 9.5 -25.5t-12.5 -24.5q-20 -16 -49.5 -30t-69 -26t-94 -18.5t-125.5 -6.5q-123 0 -219.5 38t-164 110t-103 174t-35.5 234zM480 525q0 -42 9 -69t24 -43 t32.5 -22.5t33.5 -6.5q22 0 41.5 5t34.5 18t25.5 35t10.5 55v66q0 18 -3.5 35.5t-15.5 33.5t-34 26.5t-58 10.5q-30 0 -50 -14.5t-31 -36.5t-15 -46.5t-4 -46.5z" />
<glyph unicode="A" d="M-33.5 26.5q-1.5 8.5 4.5 20.5l422 984q5 13 19 22.5t30 9.5h203q15 0 29 -9.5t20 -22.5l424 -989q6 -13 -2 -27.5t-31 -14.5h-249q-16 0 -30 9.5t-21 22.5l-39 87q-7 13 -21 22.5t-28 9.5h-307q-17 0 -30.5 -9.5t-19.5 -22.5l-40 -87q-6 -13 -20 -22.5t-29 -9.5h-250 q-7 0 -15 3t-13 9t-6.5 14.5zM456.5 407.5q5.5 -9.5 22.5 -9.5h129q14 0 20.5 9.5t-0.5 22.5q-14 36 -34.5 85t-38.5 91q-5 13 -12.5 13t-13.5 -13l-72 -176q-6 -13 -0.5 -22.5z" />
<glyph unicode="B" horiz-adv-x="1018" d="M79 35v995q0 14 10 24t25 10h438q70 0 134 -15t113 -50t78.5 -91t29.5 -138q0 -65 -32.5 -113t-70.5 -76q-26 -19 3 -33q24 -13 47 -32t42.5 -46.5t32 -64t12.5 -82.5q0 -94 -30 -156.5t-80.5 -99t-117 -52t-139.5 -15.5h-460q-15 0 -25 10.5t-10 24.5zM366 302 q0 -14 10.5 -24t24.5 -10h163q27 0 50 21.5t23 50.5q0 26 -23 53t-60 27h-153q-14 0 -24.5 -10t-10.5 -24v-84zM366 695q0 -14 10.5 -24.5t24.5 -10.5h136q29 0 46.5 22.5t17.5 50.5q0 26 -21.5 45t-39.5 19h-139q-14 0 -24.5 -10t-10.5 -25v-67z" />
<glyph unicode="C" horiz-adv-x="1136" d="M29 531q0 114 43.5 214t120 174t178.5 118t218 44q95 0 172.5 -22t140 -61.5t112.5 -95.5t93 -122q7 -12 2.5 -25.5t-17.5 -18.5l-207 -81q-14 -6 -28.5 -0.5t-21.5 17.5q-42 66 -102 102t-144 36q-56 0 -104.5 -23.5t-84.5 -61.5t-56.5 -89.5t-20.5 -104.5 q0 -55 20.5 -105.5t56.5 -88t85 -61t104 -23.5q80 0 144.5 38.5t102.5 99.5q7 12 21 18t28 -1l207 -81q13 -5 17.5 -18t-2.5 -26q-42 -68 -93 -124t-114.5 -95t-140.5 -61t-170 -22q-117 0 -218.5 43.5t-178 118t-120 174.5t-43.5 214z" />
<glyph unicode="D" horiz-adv-x="1142" d="M82 35v995q0 14 10 24t24 10h397q229 0 374 -133q79 -73 119.5 -173.5t40.5 -225.5q0 -124 -40.5 -225.5t-119.5 -174.5q-73 -65 -166.5 -98.5t-207.5 -33.5h-397q-14 0 -24 10.5t-10 24.5zM369 302q0 -14 10.5 -24t24.5 -10h109q41 0 84.5 10t78.5 38t57.5 80t22.5 135 t-22.5 134.5t-58 80t-78.5 38.5t-84 10h-109q-14 0 -24.5 -10t-10.5 -25v-457z" />
<glyph unicode="E" horiz-adv-x="992" d="M77 35v995q0 14 10 24t25 10h740q14 0 24.5 -10t10.5 -24v-199q0 -14 -10 -24t-25 -10h-452q-14 0 -24.5 -10.5t-10.5 -24.5v-61q0 -14 10.5 -24.5t24.5 -10.5h394q14 0 24.5 -10.5t10.5 -24.5v-201q0 -14 -10 -24.5t-25 -10.5h-394q-14 0 -24.5 -10t-10.5 -24v-56 q0 -14 10.5 -24t24.5 -10h452q14 0 24.5 -10.5t10.5 -24.5v-201q0 -14 -10 -24.5t-25 -10.5h-740q-14 0 -24.5 10.5t-10.5 24.5z" />
<glyph unicode="F" horiz-adv-x="947" d="M77 35v995q0 14 10 24t25 10h740q14 0 24.5 -10t10.5 -24v-200q0 -14 -10 -24.5t-25 -10.5h-451q-14 0 -24.5 -10t-10.5 -25v-61q0 -14 10.5 -24t24.5 -10h393q14 0 24.5 -10.5t10.5 -24.5v-204q0 -14 -10 -24.5t-25 -10.5h-393q-14 0 -24.5 -10t-10.5 -25v-321 q0 -14 -10 -24.5t-24 -10.5h-220q-14 0 -24.5 10.5t-10.5 24.5z" />
<glyph unicode="G" horiz-adv-x="1224" d="M29 531q0 114 44.5 214t121 175t178 118.5t217.5 43.5q160 0 279 -65.5t192 -180.5q8 -11 4 -26.5t-15 -22.5l-175 -113q-11 -7 -25.5 -4.5t-25.5 14.5q-44 55 -100.5 88.5t-133.5 33.5q-55 0 -104 -23t-85 -60.5t-57 -88t-21 -103.5q0 -55 21 -105t57 -87t85 -59.5 t104 -22.5t109 20.5t86 66.5q7 12 1.5 21.5t-20.5 9.5h-167q-14 0 -24.5 10t-10.5 25v173q0 14 10 24.5t25 10.5h500q14 0 25 -9.5t13 -25.5q3 -25 3 -60.5t-5 -73.5q-10 -100 -56.5 -185.5t-120 -148t-167.5 -98.5t-201 -36q-116 0 -217.5 43.5t-178 118t-121 174.5 t-44.5 214z" />
<glyph unicode="H" horiz-adv-x="1162" d="M83 35v995q0 14 9.5 24t25.5 10h216q15 0 25 -10t10 -24v-345q0 -14 9.5 -24.5t25.5 -10.5h300q14 0 24 10t10 25v345q0 14 10 24t26 10h218q14 0 24.5 -10t10.5 -24v-995q0 -14 -10.5 -24.5t-24.5 -10.5h-218q-16 0 -26 10.5t-10 24.5v311q0 14 -9.5 24.5t-24.5 10.5 h-300q-16 0 -25.5 -10t-9.5 -25v-311q0 -14 -10 -24.5t-25 -10.5h-216q-16 0 -25.5 10.5t-9.5 24.5z" />
<glyph unicode="I" horiz-adv-x="494" d="M90 35v993q0 14 9.5 24.5t25.5 10.5h219q15 0 25.5 -10.5t10.5 -24.5v-993q0 -14 -10.5 -24.5t-25.5 -10.5h-219q-16 0 -25.5 10.5t-9.5 24.5z" />
<glyph unicode="J" horiz-adv-x="885" d="M-7 252q6 14 18 21l165 85q13 7 27 2t21 -17q22 -35 56.5 -62.5t80.5 -27.5q39 0 62.5 16.5t35.5 40.5t16.5 51t4.5 47v620q0 14 10.5 24.5t24.5 10.5h218q16 0 25.5 -10.5t9.5 -24.5v-620q0 -96 -30 -174.5t-83 -135t-128 -87t-166 -30.5q-122 0 -216.5 65t-150.5 179 q-7 13 -1 27z" />
<glyph unicode="K" horiz-adv-x="1068" d="M83 35v995q0 14 9.5 24t25.5 10h218q14 0 24.5 -10t10.5 -24v-335q0 -14 6 -16.5t14 9.5l262 347q9 12 25 20t31 8h279q16 0 20 -14t-5 -25l-382 -479q-9 -11 -8.5 -26.5t11.5 -25.5q50 -54 105 -112t109 -117t107.5 -116.5t101.5 -107.5q10 -11 7.5 -25.5t-19.5 -14.5 h-301q-16 0 -33 7.5t-25 18.5l-282 316q-10 11 -16.5 8t-6.5 -17v-298q0 -14 -10 -24.5t-25 -10.5h-218q-16 0 -25.5 10.5t-9.5 24.5z" />
<glyph unicode="L" horiz-adv-x="893" d="M77 35v995q0 14 9.5 24t25.5 10h218q14 0 24.5 -10t10.5 -24v-728q0 -14 9.5 -24t25.5 -10h438q14 0 24.5 -10.5t10.5 -24.5v-198q0 -14 -10.5 -24.5t-24.5 -10.5h-726q-16 0 -25.5 10.5t-9.5 24.5z" />
<glyph unicode="M" horiz-adv-x="1417" d="M83 35v993q0 14 10 24.5t25 10.5h204q14 0 30 -8.5t23 -20.5l280 -410q8 -11 20 -11.5t19 11.5l279 410q8 11 24 20t31 9h204q14 0 24.5 -10.5t10.5 -24.5v-993q0 -14 -10.5 -24.5t-24.5 -10.5h-220q-14 0 -24.5 10.5t-10.5 24.5v468q0 15 -13 16t-22 -10l-244 -394 q-7 -11 -23 -11.5t-25 11.5l-245 394q-7 11 -20 10t-13 -16v-468q0 -14 -10 -24.5t-25 -10.5h-219q-14 0 -24.5 10.5t-10.5 24.5z" />
<glyph unicode="N" horiz-adv-x="1218" d="M80 35v995q0 14 10 24t25 10h218q14 0 30.5 -7.5t24.5 -19.5l378 -534q9 -11 18.5 -10t9.5 16v521q0 14 10 24t25 10h215q14 0 24.5 -10t10.5 -24v-995q0 -14 -10 -24.5t-25 -10.5h-215q-15 0 -31 9t-24 20l-380 534q-8 11 -18 9t-10 -17v-520q0 -14 -10 -24.5t-24 -10.5 h-217q-14 0 -24.5 10.5t-10.5 24.5z" />
<glyph unicode="O" horiz-adv-x="1203" d="M32 532q0 114 43.5 214t118 175t174.5 118.5t213 43.5q114 0 214.5 -43.5t175.5 -118.5t118 -175.5t43 -213.5t-43 -213.5t-118 -175.5t-175.5 -118.5t-214.5 -43.5q-113 0 -213 43.5t-174.5 118.5t-118 175.5t-43.5 213.5zM320 532q0 -55 20.5 -104.5t56 -87.5 t83.5 -60.5t101 -22.5q54 0 102 22.5t84.5 60.5t57 87.5t20.5 104.5q0 54 -20.5 104.5t-57 87t-84.5 59.5t-102 23q-53 0 -101 -23t-83.5 -59.5t-56 -87t-20.5 -104.5z" />
<glyph unicode="P" horiz-adv-x="985" d="M77 35v995q0 14 10 24t25 10h445q81 0 153 -30.5t125 -84t84.5 -125t31.5 -152.5q0 -82 -26 -152.5t-79.5 -122t-132.5 -81.5t-185 -30h-127q-14 0 -24.5 -10t-10.5 -25v-216q0 -14 -10 -24.5t-24 -10.5h-220q-14 0 -24.5 10.5t-10.5 24.5zM366 590q0 -14 10.5 -24.5 t24.5 -10.5h156q55 0 80.5 36t25.5 81q0 23 -8 45.5t-24 40t-39 28.5t-54 11h-137q-14 0 -24.5 -10t-10.5 -25v-172z" />
<glyph unicode="Q" horiz-adv-x="1202" d="M35 540q0 112 42 210.5t115.5 172t171.5 116.5t210 43q113 0 211.5 -43t172 -116.5t115.5 -172t42 -210.5q0 -70 -24.5 -133.5t-62.5 -106.5q-19 -27 11 -27h69q15 0 25 -10t10 -24v-206q0 -14 -10 -24t-25 -10h-502q-147 0 -254.5 42.5t-178 116t-104.5 171.5t-34 211z M322 540q0 -53 19.5 -99.5t54 -81.5t80.5 -56t98 -21q53 0 99 21t80.5 56t54 81.5t19.5 99.5q0 52 -19.5 99.5t-54 83t-80.5 55.5t-99 20q-52 0 -98 -20t-80.5 -55.5t-54 -83t-19.5 -99.5z" />
<glyph unicode="R" horiz-adv-x="1046" d="M80 35v995q0 14 10 24t25 10h452q85 0 156 -28.5t121.5 -79t78.5 -120.5t28 -154q0 -47 -11 -92.5t-31.5 -86.5t-47.5 -73.5t-63 -54.5q-11 -9 -14.5 -21t4.5 -24q55 -72 116.5 -149.5t108.5 -141.5q9 -11 4.5 -25t-18.5 -14h-271q-14 0 -31 8t-25 20q-47 61 -92.5 123.5 t-91.5 126.5q-8 11 -24 19t-31 8h-32q-14 0 -24.5 -10t-10.5 -24v-236q0 -14 -10 -24.5t-24 -10.5h-217q-14 0 -24.5 10.5t-10.5 24.5zM366 608q0 -14 10.5 -24.5t24.5 -10.5h154q18 0 37 6.5t35 20t26 34.5t10 48q0 15 -5 34.5t-17.5 37.5t-33.5 30.5t-52 12.5h-154 q-14 0 -24.5 -10t-10.5 -25v-154z" />
<glyph unicode="S" horiz-adv-x="988" d="M30.5 166.5q-1.5 15.5 7.5 26.5l112 162q8 11 23 14t27 -4q78 -51 155 -80t143 -29q64 0 98 18.5t34 54.5q0 19 -14.5 29.5t-39 18t-56.5 12t-65 11.5q-32 5 -75 13.5t-88 23.5t-89.5 38t-79 60t-55.5 87t-21 118q0 100 39 165.5t99.5 104.5t134.5 54t144 15 q122 0 219 -36t185 -104q12 -10 13.5 -24.5t-7.5 -26.5l-114 -161q-8 -11 -22.5 -14.5t-26.5 6.5q-74 46 -138 65.5t-118 19.5q-16 0 -37 -1t-40 -6t-31.5 -16.5t-12.5 -31.5q0 -21 30.5 -36.5t70 -27.5t76 -18.5t46.5 -7.5q52 -10 114.5 -30t117 -58.5t91.5 -100.5t37 -155 q0 -87 -30.5 -150t-84.5 -103.5t-130.5 -60.5t-169.5 -20q-75 0 -141 12.5t-122.5 34.5t-105.5 51.5t-90 63.5q-11 8 -12.5 23.5z" />
<glyph unicode="T" horiz-adv-x="903" d="M33 831v199q0 14 10.5 24t24.5 10h768q17 0 26 -10t9 -24v-199q0 -14 -9 -24t-26 -10h-203q-15 0 -25 -10t-10 -25v-727q0 -14 -9.5 -24.5t-25.5 -10.5h-219q-14 0 -24 10.5t-10 24.5v727q0 14 -9.5 24.5t-25.5 10.5h-207q-14 0 -24.5 10t-10.5 24z" />
<glyph unicode="U" horiz-adv-x="1145" d="M79 439v589q0 14 10 24.5t25 10.5h219q14 0 24.5 -10.5t10.5 -24.5v-589q0 -57 18 -94t45 -58t57.5 -30t55.5 -9t55.5 9t56.5 30t44.5 58.5t18.5 93.5v589q0 14 9.5 24.5t24.5 10.5h220q14 0 24 -10.5t10 -24.5v-589q0 -103 -32.5 -187t-93.5 -144t-147 -93t-190 -33 q-105 0 -190.5 33t-146.5 93t-94.5 144t-33.5 187z" />
<glyph unicode="V" horiz-adv-x="1206" d="M-6.5 1051.5q6.5 12.5 25.5 12.5h237q14 0 28 -9t21 -23l257 -584q7 -13 18.5 -13t18.5 13l254 584q8 13 21.5 22.5t28.5 9.5h242q16 0 23 -12.5t1 -23.5l-443 -996q-7 -13 -21 -22.5t-29 -9.5h-193q-14 0 -28.5 9.5t-21.5 22.5l-439 990q-7 17 -0.5 29.5z" />
<glyph unicode="W" horiz-adv-x="1659" d="M0.5 1052q6.5 12 22.5 12h238q14 0 27 -9t17 -23l166 -484q5 -14 15.5 -14t15.5 14l160 483q4 14 17 23.5t29 9.5h194q16 0 29 -9t17 -24l160 -486q5 -14 15.5 -14t16.5 14l167 487q6 13 19 22.5t29 9.5h236q16 0 21.5 -12.5t1.5 -24.5l-352 -994q-5 -14 -18.5 -23.5 t-29.5 -9.5h-187q-17 0 -30 9.5t-17 23.5l-160 485q-4 14 -15 14t-15 -14l-160 -485q-4 -14 -17.5 -23.5t-29.5 -9.5h-188q-16 0 -28.5 11t-15.5 22l-350 989q-7 18 -0.5 30z" />
<glyph unicode="X" horiz-adv-x="1096" d="M-26.5 1048.5q4.5 14.5 19.5 14.5h279q14 0 30.5 -8.5t24.5 -20.5l182 -266q9 -12 20.5 -12t20.5 12q46 65 92 134t89 133q9 12 25 20t31 8h277q18 0 21 -14.5t-6 -26.5l-362 -468q-8 -12 -8.5 -28t8.5 -28l354 -456q9 -11 4 -26.5t-19 -15.5h-276q-15 0 -31 9t-25 20 l-174 254q-9 12 -20.5 12t-20.5 -12l-175 -254q-8 -11 -24 -20t-31 -9h-276q-14 0 -19 15.5t5 26.5l354 456q8 12 8 28t-8 28l-365 468q-9 12 -4.5 26.5z" />
<glyph unicode="Y" horiz-adv-x="1030" d="M-33.5 1049q4.5 14 19.5 14h258q14 0 30 -8.5t23 -22.5l179 -311q7 -11 17 -11.5t17 11.5l178 311q7 13 22.5 22t29.5 9h262q14 0 21 -10t-5 -31l-363 -589q-7 -13 -13.5 -31.5t-6.5 -33.5v-333q0 -14 -10 -24.5t-24 -10.5h-220q-14 0 -24.5 10.5t-10.5 24.5v331 q0 15 -5 34.5t-12 31.5q-88 149 -178.5 293.5t-181.5 296.5q-7 13 -2.5 27z" />
<glyph unicode="Z" horiz-adv-x="1030" d="M57 35v163q0 14 7 31.5t16 29.5l445 499q8 11 5.5 24t-18.5 13h-420q-15 0 -25 10.5t-10 24.5v200q0 14 10 24t25 10h822q17 0 26 -10t9 -24v-165q0 -14 -6.5 -31.5t-14.5 -29.5l-445 -500q-9 -11 -6 -23.5t17 -12.5h420q17 0 26 -10.5t9 -24.5v-198q0 -14 -9 -24.5 t-26 -10.5h-822q-15 0 -25 10.5t-10 24.5z" />
<glyph unicode="[" horiz-adv-x="566" d="M86 -172v1421q0 16 10 25.5t25 9.5h391q14 0 24.5 -9.5t10.5 -25.5v-199q0 -14 -10.5 -24.5t-24.5 -10.5h-104q-14 0 -24.5 -9.5t-10.5 -25.5v-884q0 -14 10.5 -24.5t24.5 -10.5h104q14 0 24.5 -9.5t10.5 -25.5v-198q0 -14 -10.5 -24.5t-24.5 -10.5h-391q-15 0 -25 10.5 t-10 24.5z" />
<glyph unicode="\" horiz-adv-x="716" d="M-45 1166q-5 13 1 22.5t21 9.5h216q14 0 28.5 -9.5t19.5 -22.5l487 -1313q5 -13 -1.5 -23t-21.5 -10h-218q-14 0 -28 10t-18 23z" />
<glyph unicode="]" horiz-adv-x="533" d="M21 26q0 17 9.5 26t24.5 9h102q14 0 24.5 10.5t10.5 24.5v884q0 16 -10 25.5t-25 9.5h-102q-14 0 -24 10t-10 25v199q0 16 9.5 25.5t24.5 9.5h390q14 0 24.5 -9.5t10.5 -25.5v-1421q0 -14 -10.5 -24.5t-24.5 -10.5h-390q-14 0 -24 10.5t-10 24.5v198z" />
<glyph unicode="^" horiz-adv-x="879" d="M23 498q-5 10 2 22l257 522q7 13 21 22t30 9h187q15 0 29 -8.5t21 -22.5l257 -522q7 -12 1.5 -22t-19.5 -10h-235q-16 0 -30 10t-19 22l-86 194q-6 13 -14 13t-13 -13l-86 -194q-6 -12 -19.5 -22t-28.5 -10h-233q-17 0 -22 10z" />
<glyph unicode="_" horiz-adv-x="918" d="M39 70q0 14 10.5 24t24.5 10h762q17 0 26 -10t9 -24v-196q0 -15 -9 -25t-26 -10h-762q-14 0 -24.5 10t-10.5 25v196z" />
<glyph unicode="`" horiz-adv-x="476" d="M9 1188q-25 20 4 35l209 90q13 5 29.5 1t24.5 -15l203 -261q8 -11 4 -19.5t-18 -8.5h-185q-14 0 -32 7t-30 15z" />
<glyph unicode="a" d="M-33.5 26.5q-1.5 8.5 4.5 20.5l422 984q5 13 19 22.5t30 9.5h203q15 0 29 -9.5t20 -22.5l424 -989q6 -13 -2 -27.5t-31 -14.5h-249q-16 0 -30 9.5t-21 22.5l-39 87q-7 13 -21 22.5t-28 9.5h-307q-17 0 -30.5 -9.5t-19.5 -22.5l-40 -87q-6 -13 -20 -22.5t-29 -9.5h-250 q-7 0 -15 3t-13 9t-6.5 14.5zM456.5 407.5q5.5 -9.5 22.5 -9.5h129q14 0 20.5 9.5t-0.5 22.5q-14 36 -34.5 85t-38.5 91q-5 13 -12.5 13t-13.5 -13l-72 -176q-6 -13 -0.5 -22.5z" />
<glyph unicode="b" horiz-adv-x="1018" d="M79 35v995q0 14 10 24t25 10h438q70 0 134 -15t113 -50t78.5 -91t29.5 -138q0 -65 -32.5 -113t-70.5 -76q-26 -19 3 -33q24 -13 47 -32t42.5 -46.5t32 -64t12.5 -82.5q0 -94 -30 -156.5t-80.5 -99t-117 -52t-139.5 -15.5h-460q-15 0 -25 10.5t-10 24.5zM366 302 q0 -14 10.5 -24t24.5 -10h163q27 0 50 21.5t23 50.5q0 26 -23 53t-60 27h-153q-14 0 -24.5 -10t-10.5 -24v-84zM366 695q0 -14 10.5 -24.5t24.5 -10.5h136q29 0 46.5 22.5t17.5 50.5q0 26 -21.5 45t-39.5 19h-139q-14 0 -24.5 -10t-10.5 -25v-67z" />
<glyph unicode="c" horiz-adv-x="1136" d="M29 531q0 114 43.5 214t120 174t178.5 118t218 44q95 0 172.5 -22t140 -61.5t112.5 -95.5t93 -122q7 -12 2.5 -25.5t-17.5 -18.5l-207 -81q-14 -6 -28.5 -0.5t-21.5 17.5q-42 66 -102 102t-144 36q-56 0 -104.5 -23.5t-84.5 -61.5t-56.5 -89.5t-20.5 -104.5 q0 -55 20.5 -105.5t56.5 -88t85 -61t104 -23.5q80 0 144.5 38.5t102.5 99.5q7 12 21 18t28 -1l207 -81q13 -5 17.5 -18t-2.5 -26q-42 -68 -93 -124t-114.5 -95t-140.5 -61t-170 -22q-117 0 -218.5 43.5t-178 118t-120 174.5t-43.5 214z" />
<glyph unicode="d" horiz-adv-x="1142" d="M82 35v995q0 14 10 24t24 10h397q229 0 374 -133q79 -73 119.5 -173.5t40.5 -225.5q0 -124 -40.5 -225.5t-119.5 -174.5q-73 -65 -166.5 -98.5t-207.5 -33.5h-397q-14 0 -24 10.5t-10 24.5zM369 302q0 -14 10.5 -24t24.5 -10h109q41 0 84.5 10t78.5 38t57.5 80t22.5 135 t-22.5 134.5t-58 80t-78.5 38.5t-84 10h-109q-14 0 -24.5 -10t-10.5 -25v-457z" />
<glyph unicode="e" horiz-adv-x="992" d="M77 35v995q0 14 10 24t25 10h740q14 0 24.5 -10t10.5 -24v-199q0 -14 -10 -24t-25 -10h-452q-14 0 -24.5 -10.5t-10.5 -24.5v-61q0 -14 10.5 -24.5t24.5 -10.5h394q14 0 24.5 -10.5t10.5 -24.5v-201q0 -14 -10 -24.5t-25 -10.5h-394q-14 0 -24.5 -10t-10.5 -24v-56 q0 -14 10.5 -24t24.5 -10h452q14 0 24.5 -10.5t10.5 -24.5v-201q0 -14 -10 -24.5t-25 -10.5h-740q-14 0 -24.5 10.5t-10.5 24.5z" />
<glyph unicode="f" horiz-adv-x="947" d="M77 35v995q0 14 10 24t25 10h740q14 0 24.5 -10t10.5 -24v-200q0 -14 -10 -24.5t-25 -10.5h-451q-14 0 -24.5 -10t-10.5 -25v-61q0 -14 10.5 -24t24.5 -10h393q14 0 24.5 -10.5t10.5 -24.5v-204q0 -14 -10 -24.5t-25 -10.5h-393q-14 0 -24.5 -10t-10.5 -25v-321 q0 -14 -10 -24.5t-24 -10.5h-220q-14 0 -24.5 10.5t-10.5 24.5z" />
<glyph unicode="g" horiz-adv-x="1224" d="M29 531q0 114 44.5 214t121 175t178 118.5t217.5 43.5q160 0 279 -65.5t192 -180.5q8 -11 4 -26.5t-15 -22.5l-175 -113q-11 -7 -25.5 -4.5t-25.5 14.5q-44 55 -100.5 88.5t-133.5 33.5q-55 0 -104 -23t-85 -60.5t-57 -88t-21 -103.5q0 -55 21 -105t57 -87t85 -59.5 t104 -22.5t109 20.5t86 66.5q7 12 1.5 21.5t-20.5 9.5h-167q-14 0 -24.5 10t-10.5 25v173q0 14 10 24.5t25 10.5h500q14 0 25 -9.5t13 -25.5q3 -25 3 -60.5t-5 -73.5q-10 -100 -56.5 -185.5t-120 -148t-167.5 -98.5t-201 -36q-116 0 -217.5 43.5t-178 118t-121 174.5 t-44.5 214z" />
<glyph unicode="h" horiz-adv-x="1162" d="M83 35v995q0 14 9.5 24t25.5 10h216q15 0 25 -10t10 -24v-345q0 -14 9.5 -24.5t25.5 -10.5h300q14 0 24 10t10 25v345q0 14 10 24t26 10h218q14 0 24.5 -10t10.5 -24v-995q0 -14 -10.5 -24.5t-24.5 -10.5h-218q-16 0 -26 10.5t-10 24.5v311q0 14 -9.5 24.5t-24.5 10.5 h-300q-16 0 -25.5 -10t-9.5 -25v-311q0 -14 -10 -24.5t-25 -10.5h-216q-16 0 -25.5 10.5t-9.5 24.5z" />
<glyph unicode="i" horiz-adv-x="494" d="M90 35v993q0 14 9.5 24.5t25.5 10.5h219q15 0 25.5 -10.5t10.5 -24.5v-993q0 -14 -10.5 -24.5t-25.5 -10.5h-219q-16 0 -25.5 10.5t-9.5 24.5z" />
<glyph unicode="j" horiz-adv-x="885" d="M-7 252q6 14 18 21l165 85q13 7 27 2t21 -17q22 -35 56.5 -62.5t80.5 -27.5q39 0 62.5 16.5t35.5 40.5t16.5 51t4.5 47v620q0 14 10.5 24.5t24.5 10.5h218q16 0 25.5 -10.5t9.5 -24.5v-620q0 -96 -30 -174.5t-83 -135t-128 -87t-166 -30.5q-122 0 -216.5 65t-150.5 179 q-7 13 -1 27z" />
<glyph unicode="k" horiz-adv-x="1068" d="M83 35v995q0 14 9.5 24t25.5 10h218q14 0 24.5 -10t10.5 -24v-335q0 -14 6 -16.5t14 9.5l262 347q9 12 25 20t31 8h279q16 0 20 -14t-5 -25l-382 -479q-9 -11 -8.5 -26.5t11.5 -25.5q50 -54 105 -112t109 -117t107.5 -116.5t101.5 -107.5q10 -11 7.5 -25.5t-19.5 -14.5 h-301q-16 0 -33 7.5t-25 18.5l-282 316q-10 11 -16.5 8t-6.5 -17v-298q0 -14 -10 -24.5t-25 -10.5h-218q-16 0 -25.5 10.5t-9.5 24.5z" />
<glyph unicode="l" horiz-adv-x="893" d="M77 35v995q0 14 9.5 24t25.5 10h218q14 0 24.5 -10t10.5 -24v-728q0 -14 9.5 -24t25.5 -10h438q14 0 24.5 -10.5t10.5 -24.5v-198q0 -14 -10.5 -24.5t-24.5 -10.5h-726q-16 0 -25.5 10.5t-9.5 24.5z" />
<glyph unicode="m" horiz-adv-x="1417" d="M83 35v993q0 14 10 24.5t25 10.5h204q14 0 30 -8.5t23 -20.5l280 -410q8 -11 20 -11.5t19 11.5l279 410q8 11 24 20t31 9h204q14 0 24.5 -10.5t10.5 -24.5v-993q0 -14 -10.5 -24.5t-24.5 -10.5h-220q-14 0 -24.5 10.5t-10.5 24.5v468q0 15 -13 16t-22 -10l-244 -394 q-7 -11 -23 -11.5t-25 11.5l-245 394q-7 11 -20 10t-13 -16v-468q0 -14 -10 -24.5t-25 -10.5h-219q-14 0 -24.5 10.5t-10.5 24.5z" />
<glyph unicode="n" horiz-adv-x="1218" d="M80 35v995q0 14 10 24t25 10h218q14 0 30.5 -7.5t24.5 -19.5l378 -534q9 -11 18.5 -10t9.5 16v521q0 14 10 24t25 10h215q14 0 24.5 -10t10.5 -24v-995q0 -14 -10 -24.5t-25 -10.5h-215q-15 0 -31 9t-24 20l-380 534q-8 11 -18 9t-10 -17v-520q0 -14 -10 -24.5t-24 -10.5 h-217q-14 0 -24.5 10.5t-10.5 24.5z" />
<glyph unicode="o" horiz-adv-x="1203" d="M32 532q0 114 43.5 214t118 175t174.5 118.5t213 43.5q114 0 214.5 -43.5t175.5 -118.5t118 -175.5t43 -213.5t-43 -213.5t-118 -175.5t-175.5 -118.5t-214.5 -43.5q-113 0 -213 43.5t-174.5 118.5t-118 175.5t-43.5 213.5zM320 532q0 -55 20.5 -104.5t56 -87.5 t83.5 -60.5t101 -22.5q54 0 102 22.5t84.5 60.5t57 87.5t20.5 104.5q0 54 -20.5 104.5t-57 87t-84.5 59.5t-102 23q-53 0 -101 -23t-83.5 -59.5t-56 -87t-20.5 -104.5z" />
<glyph unicode="p" horiz-adv-x="985" d="M77 35v995q0 14 10 24t25 10h445q81 0 153 -30.5t125 -84t84.5 -125t31.5 -152.5q0 -82 -26 -152.5t-79.5 -122t-132.5 -81.5t-185 -30h-127q-14 0 -24.5 -10t-10.5 -25v-216q0 -14 -10 -24.5t-24 -10.5h-220q-14 0 -24.5 10.5t-10.5 24.5zM366 590q0 -14 10.5 -24.5 t24.5 -10.5h156q55 0 80.5 36t25.5 81q0 23 -8 45.5t-24 40t-39 28.5t-54 11h-137q-14 0 -24.5 -10t-10.5 -25v-172z" />
<glyph unicode="q" horiz-adv-x="1202" d="M35 540q0 112 42 210.5t115.5 172t171.5 116.5t210 43q113 0 211.5 -43t172 -116.5t115.5 -172t42 -210.5q0 -70 -24.5 -133.5t-62.5 -106.5q-19 -27 11 -27h69q15 0 25 -10t10 -24v-206q0 -14 -10 -24t-25 -10h-502q-147 0 -254.5 42.5t-178 116t-104.5 171.5t-34 211z M322 540q0 -53 19.5 -99.5t54 -81.5t80.5 -56t98 -21q53 0 99 21t80.5 56t54 81.5t19.5 99.5q0 52 -19.5 99.5t-54 83t-80.5 55.5t-99 20q-52 0 -98 -20t-80.5 -55.5t-54 -83t-19.5 -99.5z" />
<glyph unicode="r" horiz-adv-x="1046" d="M80 35v995q0 14 10 24t25 10h452q85 0 156 -28.5t121.5 -79t78.5 -120.5t28 -154q0 -47 -11 -92.5t-31.5 -86.5t-47.5 -73.5t-63 -54.5q-11 -9 -14.5 -21t4.5 -24q55 -72 116.5 -149.5t108.5 -141.5q9 -11 4.5 -25t-18.5 -14h-271q-14 0 -31 8t-25 20q-47 61 -92.5 123.5 t-91.5 126.5q-8 11 -24 19t-31 8h-32q-14 0 -24.5 -10t-10.5 -24v-236q0 -14 -10 -24.5t-24 -10.5h-217q-14 0 -24.5 10.5t-10.5 24.5zM366 608q0 -14 10.5 -24.5t24.5 -10.5h154q18 0 37 6.5t35 20t26 34.5t10 48q0 15 -5 34.5t-17.5 37.5t-33.5 30.5t-52 12.5h-154 q-14 0 -24.5 -10t-10.5 -25v-154z" />
<glyph unicode="s" horiz-adv-x="988" d="M30.5 166.5q-1.5 15.5 7.5 26.5l112 162q8 11 23 14t27 -4q78 -51 155 -80t143 -29q64 0 98 18.5t34 54.5q0 19 -14.5 29.5t-39 18t-56.5 12t-65 11.5q-32 5 -75 13.5t-88 23.5t-89.5 38t-79 60t-55.5 87t-21 118q0 100 39 165.5t99.5 104.5t134.5 54t144 15 q122 0 219 -36t185 -104q12 -10 13.5 -24.5t-7.5 -26.5l-114 -161q-8 -11 -22.5 -14.5t-26.5 6.5q-74 46 -138 65.5t-118 19.5q-16 0 -37 -1t-40 -6t-31.5 -16.5t-12.5 -31.5q0 -21 30.5 -36.5t70 -27.5t76 -18.5t46.5 -7.5q52 -10 114.5 -30t117 -58.5t91.5 -100.5t37 -155 q0 -87 -30.5 -150t-84.5 -103.5t-130.5 -60.5t-169.5 -20q-75 0 -141 12.5t-122.5 34.5t-105.5 51.5t-90 63.5q-11 8 -12.5 23.5z" />
<glyph unicode="t" horiz-adv-x="903" d="M33 831v199q0 14 10.5 24t24.5 10h768q17 0 26 -10t9 -24v-199q0 -14 -9 -24t-26 -10h-203q-15 0 -25 -10t-10 -25v-727q0 -14 -9.5 -24.5t-25.5 -10.5h-219q-14 0 -24 10.5t-10 24.5v727q0 14 -9.5 24.5t-25.5 10.5h-207q-14 0 -24.5 10t-10.5 24z" />
<glyph unicode="u" horiz-adv-x="1145" d="M79 439v589q0 14 10 24.5t25 10.5h219q14 0 24.5 -10.5t10.5 -24.5v-589q0 -57 18 -94t45 -58t57.5 -30t55.5 -9t55.5 9t56.5 30t44.5 58.5t18.5 93.5v589q0 14 9.5 24.5t24.5 10.5h220q14 0 24 -10.5t10 -24.5v-589q0 -103 -32.5 -187t-93.5 -144t-147 -93t-190 -33 q-105 0 -190.5 33t-146.5 93t-94.5 144t-33.5 187z" />
<glyph unicode="v" horiz-adv-x="1206" d="M-6.5 1051.5q6.5 12.5 25.5 12.5h237q14 0 28 -9t21 -23l257 -584q7 -13 18.5 -13t18.5 13l254 584q8 13 21.5 22.5t28.5 9.5h242q16 0 23 -12.5t1 -23.5l-443 -996q-7 -13 -21 -22.5t-29 -9.5h-193q-14 0 -28.5 9.5t-21.5 22.5l-439 990q-7 17 -0.5 29.5z" />
<glyph unicode="w" horiz-adv-x="1659" d="M0.5 1052q6.5 12 22.5 12h238q14 0 27 -9t17 -23l166 -484q5 -14 15.5 -14t15.5 14l160 483q4 14 17 23.5t29 9.5h194q16 0 29 -9t17 -24l160 -486q5 -14 15.5 -14t16.5 14l167 487q6 13 19 22.5t29 9.5h236q16 0 21.5 -12.5t1.5 -24.5l-352 -994q-5 -14 -18.5 -23.5 t-29.5 -9.5h-187q-17 0 -30 9.5t-17 23.5l-160 485q-4 14 -15 14t-15 -14l-160 -485q-4 -14 -17.5 -23.5t-29.5 -9.5h-188q-16 0 -28.5 11t-15.5 22l-350 989q-7 18 -0.5 30z" />
<glyph unicode="x" horiz-adv-x="1096" d="M-26.5 1048.5q4.5 14.5 19.5 14.5h279q14 0 30.5 -8.5t24.5 -20.5l182 -266q9 -12 20.5 -12t20.5 12q46 65 92 134t89 133q9 12 25 20t31 8h277q18 0 21 -14.5t-6 -26.5l-362 -468q-8 -12 -8.5 -28t8.5 -28l354 -456q9 -11 4 -26.5t-19 -15.5h-276q-15 0 -31 9t-25 20 l-174 254q-9 12 -20.5 12t-20.5 -12l-175 -254q-8 -11 -24 -20t-31 -9h-276q-14 0 -19 15.5t5 26.5l354 456q8 12 8 28t-8 28l-365 468q-9 12 -4.5 26.5z" />
<glyph unicode="y" horiz-adv-x="1030" d="M-33.5 1049q4.5 14 19.5 14h258q14 0 30 -8.5t23 -22.5l179 -311q7 -11 17 -11.5t17 11.5l178 311q7 13 22.5 22t29.5 9h262q14 0 21 -10t-5 -31l-363 -589q-7 -13 -13.5 -31.5t-6.5 -33.5v-333q0 -14 -10 -24.5t-24 -10.5h-220q-14 0 -24.5 10.5t-10.5 24.5v331 q0 15 -5 34.5t-12 31.5q-88 149 -178.5 293.5t-181.5 296.5q-7 13 -2.5 27z" />
<glyph unicode="z" horiz-adv-x="1030" d="M57 35v163q0 14 7 31.5t16 29.5l445 499q8 11 5.5 24t-18.5 13h-420q-15 0 -25 10.5t-10 24.5v200q0 14 10 24t25 10h822q17 0 26 -10t9 -24v-165q0 -14 -6.5 -31.5t-14.5 -29.5l-445 -500q-9 -11 -6 -23.5t17 -12.5h420q17 0 26 -10.5t9 -24.5v-198q0 -14 -9 -24.5 t-26 -10.5h-822q-15 0 -25 10.5t-10 24.5z" />
<glyph unicode="{" horiz-adv-x="598" d="M26 439v202q0 16 10.5 27t24.5 17q33 12 40 43.5t5 85.5q0 29 1.5 71t9 88.5t24.5 93t51 86.5q42 48 87 76.5t91 44t91 21t87 5.5q14 0 24.5 -9.5t10.5 -25.5v-211q0 -14 -10 -23.5t-25 -10.5q-54 -2 -86.5 -15t-49.5 -43t-21 -79t-1 -124q0 -22 -3.5 -50.5t-10.5 -56.5 t-18.5 -54t-25.5 -43q-20 -22 -2 -40q14 -18 25 -42t18 -51.5t10 -55t3 -51.5q0 -68 5.5 -116t23 -79t49.5 -47t84 -18q14 -1 24.5 -10t10.5 -26l-2 -211q0 -14 -9.5 -24t-24.5 -9q-37 1 -82 7.5t-92 23t-94.5 44.5t-86.5 71q-34 41 -51 88.5t-24.5 97.5t-9 100t-1.5 97 q2 39 -3.5 60.5t-41.5 32.5q-14 4 -24.5 16t-10.5 26z" />
<glyph unicode="|" horiz-adv-x="415" d="M79 -104v1270q0 14 10 24.5t25 10.5h166q17 0 26 -10t9 -25v-1270q0 -15 -9 -25.5t-26 -10.5h-166q-15 0 -25 10.5t-10 25.5z" />
<glyph unicode="}" horiz-adv-x="601" d="M16 1054v211q0 17 10 26t25 9q43 0 88.5 -5.5t91 -21t90 -44t86.5 -76.5q32 -40 50.5 -86.5t25.5 -93t8.5 -88.5t1.5 -71q0 -54 6 -85.5t41 -43.5q12 -6 22.5 -17t10.5 -27v-202q0 -14 -9.5 -26t-23.5 -16q-37 -11 -42 -32.5t-5 -60.5q0 -47 -1.5 -97t-8.5 -100 t-25.5 -97.5t-50.5 -88.5q-39 -43 -85.5 -71t-94.5 -44.5t-93 -23t-81 -7.5q-15 -1 -25 8.5t-10 24.5v211q-2 17 8 26t25 10q53 2 85 18t49 47t23 79t6 116q0 24 2.5 51.5t9.5 55t17 51.5t26 42q19 20 0 40q-16 17 -27 43t-18 54t-11 56.5t-4 50.5q2 74 -1.5 123.5 t-20.5 79.5t-50 43t-86 15q-14 1 -24.5 10t-10.5 24z" />
<glyph unicode="~" horiz-adv-x="834" d="M13 540q13 32 33.5 66.5t50 63t67.5 46.5t86 18q54 0 86.5 -16.5t67.5 -35.5q47 -25 86 -14t61 38q8 12 21.5 18.5t28.5 2.5l149 -48q15 -5 22.5 -17t2.5 -27q-11 -33 -33 -68.5t-52.5 -65.5t-71.5 -49.5t-89 -19.5q-31 0 -52.5 2.5t-39 7.5t-32 12t-32.5 17 q-49 30 -88 25t-61 -30q-10 -11 -23.5 -16.5t-27.5 -1.5l-138 46q-14 6 -21 19t-1 27z" />
<glyph unicode="&#xa1;" horiz-adv-x="426" d="M47 35l36 627q1 14 11 24.5t27 10.5h161q14 0 24.5 -10.5t12.5 -24.5l36 -627q1 -14 -8.5 -24.5t-23.5 -10.5h-243q-16 0 -25.5 10.5t-7.5 24.5zM58 827v201q0 14 9.5 24.5t25.5 10.5h218q14 0 24.5 -10.5t10.5 -24.5v-201q0 -14 -10.5 -24.5t-24.5 -10.5h-218 q-16 0 -25.5 10.5t-9.5 24.5z" />
<glyph unicode="&#xa2;" horiz-adv-x="899" d="M21 529q0 68 19.5 131t54 115t83 93.5t105.5 67.5q13 8 22.5 21t9.5 27v63q0 14 10.5 24.5t25.5 10.5h218q16 0 25.5 -10.5t9.5 -24.5v-59q0 -15 10 -28.5t23 -20.5q35 -14 69.5 -35t67 -48t57.5 -60t42 -70q7 -13 -0.5 -27t-20.5 -20l-195 -78q-14 -6 -27.5 -0.5 t-20.5 18.5q-20 38 -55.5 62.5t-88.5 24.5q-68 0 -116 -47.5t-48 -129.5q0 -39 13 -71t35.5 -55t52.5 -36t63 -13q45 0 82 19.5t61 59.5q7 13 19.5 19t27.5 0l194 -79q13 -5 19.5 -18t1.5 -26q-21 -53 -48.5 -90.5t-58 -62.5t-62.5 -39.5t-63 -21.5q-14 -4 -24 -16t-10 -27 v-53q0 -14 -10 -24.5t-25 -10.5h-218q-14 0 -25 10t-11 25v56q0 14 -9 28.5t-23 20.5q-57 26 -105.5 67.5t-83 94.5t-54 114.5t-19.5 128.5z" />
<glyph unicode="&#xa3;" horiz-adv-x="893" d="M42 35v169q0 16 9.5 29.5t20.5 20.5q34 21 56 51.5t25 69.5q1 16 -10 25.5t-25 9.5h-38q-16 0 -25.5 10t-9.5 25v159q0 16 9.5 25t25.5 9h3q14 0 23.5 9t8.5 20l-3 28q-7 87 14 158.5t69 121.5t121.5 78t170.5 28q83 0 146.5 -26.5t110 -68.5t77 -96t46.5 -110 q3 -15 -4.5 -28.5t-20.5 -17.5l-185 -57q-14 -3 -26.5 4t-17.5 20q-19 51 -51.5 84.5t-74.5 33.5q-38 0 -60 -12t-31 -31.5t-9 -46.5t4 -56q3 -14 14.5 -24.5t27.5 -10.5h215q14 0 25 -9.5t11 -24.5v-159q0 -14 -10.5 -24.5t-25.5 -10.5h-186q-16 0 -25.5 -9.5t-10.5 -25.5 q-1 -25 -5 -45t-8 -37q-4 -15 1.5 -24.5t21.5 -9.5h355q14 0 24.5 -9.5t10.5 -25.5v-189q0 -14 -10 -24.5t-25 -10.5h-714q-16 0 -25.5 10.5t-9.5 24.5z" />
<glyph unicode="&#xa5;" horiz-adv-x="889" d="M-39 1052.5q6 10.5 20 10.5h263q14 0 29 -9.5t22 -21.5l110 -202q8 -11 17.5 -11t16.5 11l109 202q7 12 22.5 21.5t30.5 9.5h261q16 0 21 -10.5t-2 -22.5l-222 -385q-7 -11 -2 -20t19 -9h73q14 0 24.5 -10t10.5 -25v-124q0 -15 -10.5 -25t-24.5 -10h-148q-15 0 -25 -9.5 t-10 -22.5q0 -14 10 -24t25 -10h148q14 0 24.5 -9.5t10.5 -24.5v-121q0 -16 -10.5 -26t-24.5 -10h-148q-15 0 -25 -9.5t-10 -24.5v-96q0 -14 -10.5 -24.5t-24.5 -10.5h-217q-17 0 -26 10.5t-9 24.5v96q0 14 -10 24t-25 10h-136q-14 0 -25 10t-11 26v121q0 16 10.5 25t25.5 9 h136q14 0 24.5 9.5t10.5 24.5q0 13 -10 22.5t-25 9.5h-136q-14 0 -25 10t-11 25v124q0 15 10.5 25t25.5 10h61q14 0 19 9t-2 20l-224 385q-7 12 -1 22.5z" />
<glyph unicode="&#xa6;" horiz-adv-x="415" d="M79 -104v541q0 17 9 26.5t26 9.5h166q15 0 25 -9.5t10 -26.5v-541q0 -15 -10 -25.5t-25 -10.5h-166q-17 0 -26 10.5t-9 25.5zM79 623v543q0 16 9 25.5t26 9.5h166q15 0 25 -9.5t10 -25.5v-543q0 -15 -10 -25.5t-25 -10.5h-166q-17 0 -26 10.5t-9 25.5z" />
<glyph unicode="&#xa7;" horiz-adv-x="770" d="M38 122q-3 15 5 26l75 106q8 12 22.5 15t27.5 -4q44 -28 94 -50.5t116 -27.5q14 -1 31 2t31.5 9t25 13.5t10.5 19.5q0 9 -6 14.5t-20.5 11t-40 11t-66.5 14.5q-36 7 -88.5 21t-100.5 41.5t-81.5 72.5t-33.5 115q0 42 17.5 76.5t42.5 58.5q22 25 -2 46q-29 28 -43.5 62 t-14.5 70q0 52 18 90t46.5 64t63 42t68.5 24.5t62.5 12t44.5 3.5q73 0 147.5 -25t157.5 -78q11 -7 14.5 -21.5t-5.5 -25.5l-80 -111q-9 -11 -23.5 -13.5t-26.5 6.5q-54 38 -98.5 52.5t-87.5 14.5q-42 0 -60 -9.5t-18 -24.5q0 -11 13 -19t33.5 -15.5t45 -12.5t49.5 -9 q34 -9 84.5 -23t97 -41.5t79.5 -73.5t33 -115q0 -32 -12.5 -64t-28.5 -57q-8 -11 -8 -27.5t7 -27.5q20 -29 31.5 -64.5t11.5 -65.5q0 -66 -27.5 -113.5t-73 -78t-102 -44.5t-114.5 -14q-51 0 -99.5 12.5t-91.5 30.5t-79 39t-58 37q-12 7 -15 22zM237 580q-11 -26 5 -46.5 t49 -36.5q38 -16 81.5 -22.5t63.5 -6.5q23 0 42.5 11.5t18.5 42.5q-1 16 -18 31.5t-44 27t-59 18.5t-64 7q-29 -1 -47 -4.5t-28 -21.5z" />
<glyph unicode="&#xa8;" horiz-adv-x="630" d="M10 1163q0 29 11 55.5t30.5 45t46 29.5t56.5 11q61 0 100.5 -40.5t39.5 -100.5q0 -61 -39.5 -101t-100.5 -40q-30 0 -56.5 11t-46 30t-30.5 44t-11 56zM336 1163q0 29 11 55.5t29.5 45t45 29.5t57.5 11q59 0 99.5 -40.5t40.5 -100.5q0 -61 -40.5 -101t-99.5 -40 q-62 0 -102.5 40t-40.5 101z" />
<glyph unicode="&#xa9;" horiz-adv-x="1129" d="M7 531q0 114 43 213t117 173.5t174 117.5t213 43t212 -43t173 -117.5t117 -174t43 -212.5q0 -114 -43 -213t-117 -173t-173 -116.5t-212 -42.5q-114 0 -213.5 42.5t-173.5 116.5t-117 173t-43 213zM137 531q0 -86 32.5 -161.5t89 -132.5t133 -89.5t162.5 -32.5 t161.5 32.5t132.5 89.5t89.5 132.5t32.5 161.5t-32.5 162t-89.5 133t-132.5 89.5t-161.5 32.5t-162.5 -32.5t-133 -89.5t-89 -133t-32.5 -162zM266 529q0 57 22.5 108t61 88.5t90 59.5t108.5 22q38 0 78.5 -12.5t76 -35.5t63.5 -54.5t41 -69.5q3 -7 -1 -13.5t-11 -9.5 l-123 -48q-7 -2 -14.5 0t-10.5 9q-21 32 -47 48t-52 16q-47 0 -79.5 -31.5t-32.5 -76.5t33 -76t79 -31q25 0 51.5 16t43.5 42q9 16 26 8l122 -44q17 -7 11 -24q-12 -40 -40 -71.5t-62.5 -52.5t-75 -32t-76.5 -11q-57 0 -108.5 22t-90 59t-61 88t-22.5 107z" />
<glyph unicode="&#xaa;" horiz-adv-x="528" d="M25 1015q4 16 15 23q17 10 37 20.5t44 15.5q74 18 132 18t113 -21q44 -16 68 -44t35 -60.5t13 -67t2 -64.5v-234q0 -15 -10 -25t-25 -10h-112q-14 0 -18 3t-4 7q0 8 -8.5 4t-23.5 -8q-19 -6 -44 -10.5t-53 -4.5t-54 7.5t-46 22.5q-31 24 -44 60.5t-13 75.5q-1 45 17 75.5 t46.5 48t61.5 25.5t64 8q19 1 32 0.5t23 -2.5q15 -1 23 4.5t-1 17.5q-19 24 -70 23q-42 0 -72.5 -8t-49.5 -15q-13 -7 -25.5 -3.5t-17.5 16.5l-32 73q-7 13 -3 29zM29 368q0 -14 10.5 -24.5t24.5 -10.5h401q14 0 25 10.5t11 24.5v123q0 15 -11 25t-25 10h-401 q-14 0 -24.5 -10t-10.5 -25v-123zM207 741q0 -8 7 -12.5t17 -7.5q15 -2 35 -1t34 7l1 1q13 8 6.5 23t-19.5 17h-32q-13 0 -31 -6.5t-18 -20.5z" />
<glyph unicode="&#xab;" horiz-adv-x="998" d="M45 534q0 18 8 30l190 300q7 11 23 19.5t31 8.5h241q14 0 19 -8.5t-3 -19.5l-199 -300q-7 -12 -7.5 -29t8.5 -29l202 -298q7 -11 3 -20t-19 -9h-247q-14 0 -30.5 9.5t-23.5 20.5l-188 296q-8 11 -8 29zM433.5 536q-0.5 18 7.5 30l192 298q7 11 23 19.5t31 8.5h242 q15 0 19 -8.5t-3 -19.5l-199 -300q-7 -11 -7.5 -28t9.5 -28l201 -300q7 -11 3 -20t-18 -9h-249q-14 0 -30.5 9.5t-23.5 20.5l-190 297q-7 12 -7.5 30z" />
<glyph unicode="&#xac;" horiz-adv-x="856" d="M32 535v196q0 15 10.5 25t24.5 10h669q14 0 24 -10t10 -25v-420q0 -14 -10 -24.5t-24 -10.5h-218q-15 0 -25 10.5t-10 24.5v155q0 15 -9.5 25t-25.5 10h-381q-14 0 -24.5 9.5t-10.5 24.5z" />
<glyph unicode="&#xad;" horiz-adv-x="1210" />
<glyph unicode="&#xae;" horiz-adv-x="1129" d="M9 531q0 114 42.5 213t117 173.5t173.5 117.5t212 43t213 -43t174 -117.5t116.5 -174t42.5 -212.5q0 -114 -42.5 -213t-116.5 -173t-174 -116.5t-213 -42.5q-114 0 -212.5 42.5t-173 116.5t-117 173t-42.5 213zM138 531q0 -86 33 -161.5t89.5 -132.5t132 -89.5 t161.5 -32.5t161.5 32.5t132.5 89.5t89.5 132.5t32.5 161.5t-32.5 162t-89.5 133t-132.5 89.5t-161.5 32.5t-161.5 -32.5t-132 -89.5t-89.5 -133t-33 -162zM347 308v477q0 7 5.5 12t12.5 5h225q86 0 139 -53.5t53 -140.5q0 -88 -59 -144q-6 -5 -6.5 -12t3.5 -13l97 -134 q4 -5 2 -9.5t-9 -4.5h-167q-8 0 -16 4.5t-11 9.5q-16 24 -35 47.5t-37 47.5q-10 13 -22 13t-12 -18v-87q0 -7 -4.5 -12t-12.5 -5h-128q-7 0 -12.5 5t-5.5 12zM510 592q0 -7 5 -12.5t13 -5.5h62q4 0 19 6.5t15 27.5q0 19 -11.5 26t-22.5 7h-62q-8 0 -13 -5t-5 -12v-32z" />
<glyph unicode="&#xaf;" horiz-adv-x="573" d="M4 1086v156q0 14 10.5 24.5t24.5 10.5h466q14 0 24.5 -10.5t10.5 -24.5v-156q0 -14 -10.5 -24t-24.5 -10h-466q-14 0 -24.5 9.5t-10.5 24.5z" />
<glyph unicode="&#xb0;" horiz-adv-x="488" d="M13 1012q0 44 17.5 84.5t47.5 70.5t69.5 47.5t85.5 17.5q45 0 84 -17.5t69 -47.5t46.5 -70t16.5 -85t-16.5 -85t-46.5 -70t-69 -47.5t-84 -17.5t-85 17.5t-70 47.5t-47.5 70t-17.5 85zM154 1012q0 -34 23.5 -57t56.5 -23q34 0 57 23t23 57q0 33 -23 56.5t-57 23.5 q-33 0 -56.5 -23.5t-23.5 -56.5z" />
<glyph unicode="&#xb1;" horiz-adv-x="798" d="M50 35v196q0 17 10 26t24 9h583q15 0 25 -9.5t10 -25.5v-196q0 -14 -10 -24.5t-25 -10.5h-583q-14 0 -24 10.5t-10 24.5zM50 552v196q0 16 10 25t24 9h112q14 0 24.5 10t10.5 25v131q0 16 10 25.5t25 9.5h221q14 0 24.5 -9.5t10.5 -25.5v-131q0 -14 10 -24.5t25 -10.5 h110q15 0 25 -9t10 -25v-196q0 -14 -10 -24t-25 -10h-110q-15 0 -25 -10t-10 -25v-129q0 -15 -10 -25t-25 -10h-221q-14 0 -24.5 10t-10.5 25v129q0 16 -10 25.5t-25 9.5h-112q-14 0 -24 10t-10 24z" />
<glyph unicode="&#xb2;" horiz-adv-x="578" d="M21 946q12 32 34 69.5t54 68t74 50.5t96 20q67 0 116 -20.5t81 -55t47 -76.5t15 -85q0 -78 -39.5 -139.5t-108.5 -115.5q-18 -13 -21.5 -17.5t-12.5 -11.5q-11 -10 -9 -17t18 -7h145q17 0 27 -10t10 -25v-110q0 -15 -10.5 -25t-26.5 -10h-445q-16 0 -25 10t-9 25v103 q0 14 7 31t19 26q49 41 83.5 70t58 49t39.5 34.5t31 28.5q25 20 40 36t23 29t11 24t3 22q0 17 -6.5 28t-17 17t-21.5 8.5t-22 2.5q-29 0 -46.5 -25.5t-25.5 -50.5q-6 -12 -17.5 -19.5t-26.5 -4.5l-120 32q-14 2 -21.5 15.5t-0.5 25.5z" />
<glyph unicode="&#xb3;" horiz-adv-x="558" d="M16 613q-5 15 2 27t20 15l102 21q13 3 24.5 -5t17.5 -21q8 -21 28 -39.5t59 -18.5q32 0 48.5 17t16.5 35q0 29 -13 45t-31.5 23.5t-41 8t-40.5 -0.5q-14 -1 -24.5 8t-10.5 24v58q0 14 10 23.5t25 9.5q21 0 46.5 3t49.5 15q16 7 26 23t7 35q-4 52 -68 52 q-38 0 -58.5 -17.5t-28.5 -37.5q-6 -13 -17.5 -21t-26.5 -5l-98 20q-14 3 -21.5 15.5t-2.5 25.5q12 32 32 67t50.5 64t73 48.5t97.5 19.5q70 0 118.5 -20t79 -51.5t44.5 -71t14 -76.5q0 -58 -22.5 -88.5t-48.5 -44.5q-22 -14 0 -28q25 -16 48 -49t23 -87q0 -21 -8.5 -57 t-37.5 -72q-21 -28 -47.5 -45.5t-54.5 -27.5t-55.5 -13.5t-52.5 -3.5q-57 0 -98.5 18.5t-72 48.5t-50.5 64.5t-32 66.5z" />
<glyph unicode="&#xb4;" horiz-adv-x="477" d="M-2.5 1018.5q-4.5 8.5 5.5 19.5l201 261q8 11 24 15t29 -1l209 -90q30 -15 5 -35l-208 -156q-11 -8 -29.5 -15t-32.5 -7h-185q-14 0 -18.5 8.5z" />
<glyph unicode="&#xb6;" horiz-adv-x="790" d="M21 708q0 61 13 124.5t54 115.5t119.5 85t211.5 33h283q14 0 24.5 -9.5t10.5 -25.5v-996q0 -14 -10 -24.5t-25 -10.5h-130q-15 0 -25 10.5t-10 24.5v827q0 16 -10.5 25.5t-24.5 9.5h-8q-14 0 -24.5 -9.5t-10.5 -25.5v-827q0 -14 -10 -24.5t-24 -10.5h-127 q-14 0 -24.5 10.5t-10.5 24.5v352q0 16 -10 25.5t-24 12.5q-44 5 -82 27t-66 58.5t-44 85.5t-16 112z" />
<glyph unicode="&#xb7;" horiz-adv-x="337" d="M16 598q0 30 11.5 57t32 47.5t47 32t57.5 11.5t58.5 -11.5t48 -32t32 -47.5t11.5 -57q0 -31 -11.5 -58.5t-32 -48t-48 -32t-58.5 -11.5t-57.5 11.5t-47 32t-32 48t-11.5 58.5z" />
<glyph unicode="&#xb8;" horiz-adv-x="358" d="M-5.5 -238.5q-4.5 14.5 2.5 27.5l26 57q6 13 19 18t28 3q14 -5 32.5 -9t41.5 -4h9.5t16.5 4t16 11t7 23q0 19 -18 26t-29 7q-17 -2 -30 -5t-23 -6q-14 -4 -30 -1t-27 15v1q-10 10 -12.5 26.5t1.5 31.5l40 99q6 13 19 22.5t30 9.5h79q14 0 20 -9t-1 -22v-1q-7 -13 -1 -23 t20 -13q24 -5 52.5 -18.5t50.5 -45.5q13 -21 20.5 -53.5t4.5 -63.5q-3 -51 -28.5 -86.5t-67.5 -55.5q-33 -17 -65.5 -19.5t-43.5 -2.5q-48 1 -84.5 12t-58.5 22q-12 8 -16.5 22.5z" />
<glyph unicode="&#xb9;" horiz-adv-x="415" d="M0.5 897.5q0.5 14.5 12.5 24.5l205 193q10 10 27.5 17t32.5 7h54q14 0 24 -10.5t10 -25.5v-632q0 -14 -10 -24.5t-24 -10.5h-120q-14 0 -24 10.5t-10 24.5v311q0 15 -7.5 18.5t-17.5 -8.5q-3 -2 -5 -5t-5 -6q-10 -10 -24.5 -10.5t-24.5 11.5l-84 91q-10 10 -9.5 24.5z " />
<glyph unicode="&#xba;" horiz-adv-x="573" d="M28 821q0 54 20 101.5t55 82t81.5 55.5t100.5 21t101 -21t83 -55.5t56 -82t20 -101.5q0 -53 -20 -100.5t-56 -82t-83 -55t-101 -20.5t-100.5 20.5t-81.5 55t-55 82t-20 100.5zM51 368v123q0 15 10 25t25 10h401q14 0 24.5 -10t10.5 -25v-123q0 -14 -10.5 -24.5 t-24.5 -10.5h-401q-14 0 -24.5 10.5t-10.5 24.5zM219 821q0 -29 20 -50t46 -21q29 0 47.5 21t18.5 50q0 30 -18.5 52t-47.5 22q-27 0 -46.5 -22t-19.5 -52z" />
<glyph unicode="&#xbb;" horiz-adv-x="998" d="M45.5 188q-4.5 9 2.5 20l202 300q8 11 8.5 27.5t-8.5 28.5l-197 300q-8 11 -3.5 19.5t18.5 8.5h243q14 0 30.5 -8.5t23.5 -19.5l192 -298q7 -11 7 -29.5t-7 -30.5l-191 -297q-7 -11 -23 -20.5t-31 -9.5h-248q-14 0 -18.5 9zM436.5 188q-4.5 9 2.5 20l202 298q9 12 9 28.5 t-7 29.5l-199 300q-7 11 -3 19.5t18 8.5h242q14 0 30.5 -8.5t23.5 -19.5l190 -300q7 -11 7 -29.5t-7 -29.5l-189 -296q-7 -11 -23 -20.5t-31 -9.5h-247q-14 0 -18.5 9z" />
<glyph unicode="&#xbc;" horiz-adv-x="1270" d="M-17.5 824q-0.5 15 11.5 25l206 193q11 10 27.5 17t33.5 7h51q17 0 27 -10.5t10 -24.5v-633q0 -14 -10 -24t-27 -10h-117q-17 0 -26 10t-9 24v311q0 14 -7 18t-20 -7q-2 -3 -4.5 -6t-4.5 -6q-10 -10 -24 -10t-25 11l-82 90q-10 10 -10.5 25zM174 9q-4 9 4 22l599 1004 q7 13 22 22t31 9h156q17 0 20.5 -8.5t-3.5 -22.5l-598 -1004q-7 -13 -22 -22t-31 -9h-157q-17 0 -21 9zM667 182v89q0 14 6 32.5t16 29.5l314 378q10 11 26.5 18.5t31.5 7.5h82q16 0 25.5 -10t9.5 -25v-343q0 -14 10 -24.5t26 -10.5h9q16 0 25.5 -10t9.5 -24v-108 q0 -14 -9.5 -24.5t-25.5 -10.5h-9q-16 0 -26 -10.5t-10 -24.5v-77q0 -14 -9.5 -24.5t-25.5 -10.5h-121q-16 0 -26 10.5t-10 24.5v77q0 14 -9.5 24.5t-25.5 10.5h-249q-16 0 -25.5 10.5t-9.5 24.5zM920 344q-7 -11 7 -15.5t27 -4.5q12 0 22 5t10 20v44q0 32 -20 5z" />
<glyph unicode="&#xbd;" horiz-adv-x="1307" d="M-23.5 824q0.5 15 10.5 25l205 193q11 10 28 17t33 7h54q14 0 24.5 -10.5t10.5 -24.5v-633q0 -14 -10 -24t-25 -10h-120q-16 0 -25 10t-9 24v311q0 14 -7.5 18t-17.5 -7q-3 -3 -6 -5t-6 -6q-10 -11 -23.5 -11t-24.5 11l-82 90q-10 10 -9.5 25zM167 9q-4 9 3 22l599 1006 q7 11 22.5 20t31.5 9h157q14 0 18.5 -8.5t-2.5 -20.5l-598 -1006q-7 -13 -22 -22t-30 -9h-159q-16 0 -20 9zM736 519q12 32 34 69.5t54 68t74.5 50.5t96.5 20q66 0 115 -21t81 -55.5t47 -76.5t15 -84q0 -79 -39 -140.5t-109 -115.5q-17 -12 -20.5 -17t-13.5 -12 q-11 -10 -9 -16.5t19 -6.5h147q14 0 24 -10.5t10 -24.5v-111q0 -14 -10 -24.5t-24 -10.5h-447q-16 0 -25.5 10.5t-9.5 24.5v104q0 14 7 30.5t19 25.5q49 40 83.5 69.5t58.5 50t40 35t30 27.5q25 20 40 36t23.5 29.5t11 24.5t2.5 22q0 16 -6 27t-16.5 17.5t-22 8.5t-21.5 2 q-29 0 -46.5 -25.5t-26.5 -49.5q-5 -13 -17.5 -20.5t-26.5 -4.5l-119 32q-14 3 -21 16t-2 26z" />
<glyph unicode="&#xbe;" horiz-adv-x="1392" d="M3 541q-6 14 1 26t21 14l100 23q14 2 26 -6t18 -21q9 -20 28.5 -39t58.5 -19q32 0 49 16.5t17 36.5q0 29 -13.5 45t-32.5 23t-41.5 7.5t-39.5 -0.5q-15 -2 -25 8t-10 24v58q0 14 10 23.5t25 9.5q20 0 46.5 3.5t49.5 14.5q16 7 26 23t7 35q-4 53 -68 53q-38 0 -58 -17.5 t-29 -38.5q-6 -12 -17.5 -20.5t-26.5 -5.5l-97 21q-15 3 -22 15t-3 25q11 32 31.5 67t51 64t73 49t97.5 20q69 0 118 -20.5t79.5 -52t44.5 -70.5t14 -77q0 -59 -23 -89.5t-48 -42.5q-22 -15 0 -28q25 -16 48 -49.5t23 -86.5q0 -21 -9 -57.5t-38 -72.5q-21 -28 -46.5 -45.5 t-54 -27.5t-56.5 -13.5t-52 -3.5q-57 0 -98.5 19t-72 48.5t-51 64.5t-31.5 67zM273 9q-5 9 2 22l600 1004q8 13 23 22t30 9h157q14 0 19.5 -8.5t-2.5 -22.5l-599 -1004q-7 -13 -22.5 -22t-29.5 -9h-158q-15 0 -20 9zM726 182v89q0 14 5.5 32.5t16.5 29.5l313 378 q10 11 26 18.5t33 7.5h81q17 0 26 -10t9 -25v-343q0 -14 10 -24.5t26 -10.5h9q16 0 25.5 -10t9.5 -24v-108q0 -14 -9.5 -24.5t-25.5 -10.5h-9q-16 0 -26 -10.5t-10 -24.5v-77q0 -14 -9.5 -24.5t-25.5 -10.5h-120q-17 0 -27 10.5t-10 24.5v77q0 14 -9.5 24.5t-25.5 10.5h-249 q-16 0 -25 10.5t-9 24.5zM978 344q-7 -11 7 -15.5t27 -4.5t22.5 5t9.5 20v44q0 32 -20 5z" />
<glyph unicode="&#xbf;" horiz-adv-x="849" d="M21 293q0 75 18.5 122t47 75.5t63.5 45t66 32.5t55 37.5t31 60.5q3 14 13.5 24.5t24.5 10.5h222q16 0 26 -10.5t8 -24.5q-2 -102 -54 -160t-154 -103q-46 -21 -63.5 -38.5t-17.5 -50.5q0 -3 0.5 -13.5t9.5 -22.5t30 -21.5t61 -9.5q47 0 77.5 11t50 29t30.5 40t20 44 q4 12 18 19t27 3l166 -54q12 -5 19 -18t4 -27q-10 -39 -30.5 -93t-65.5 -104t-120.5 -85t-198.5 -35q-61 0 -108 10t-84 27t-63 36.5t-44 39.5q-40 45 -62.5 94t-22.5 109zM307 830v201q0 14 10 24.5t25 10.5h217q17 0 26.5 -10.5t9.5 -24.5v-201q0 -14 -9.5 -24.5 t-26.5 -10.5h-217q-15 0 -25 10.5t-10 24.5z" />
<glyph unicode="&#xc0;" d="M-33.5 26.5q-1.5 8.5 4.5 20.5l422 984q5 13 19 22.5t30 9.5h203q15 0 29 -9.5t20 -22.5l424 -989q6 -13 -2 -27.5t-31 -14.5h-249q-16 0 -30 9.5t-21 22.5l-39 87q-7 13 -21 22.5t-28 9.5h-307q-17 0 -30.5 -9.5t-19.5 -22.5l-40 -87q-6 -13 -20 -22.5t-29 -9.5h-250 q-7 0 -15 3t-13 9t-6.5 14.5zM205 1290q-25 21 4 35l210 90q13 6 29 1.5t25 -16.5l201 -260q9 -11 5.5 -19t-17.5 -8h-185q-14 0 -32.5 6t-29.5 15zM456.5 407.5q5.5 -9.5 22.5 -9.5h129q14 0 20.5 9.5t-0.5 22.5q-14 36 -34.5 85t-38.5 91q-5 13 -12.5 13t-13.5 -13 l-72 -176q-6 -13 -0.5 -22.5z" />
<glyph unicode="&#xc1;" d="M-33.5 26.5q-1.5 8.5 4.5 20.5l422 984q5 13 19 22.5t30 9.5h203q15 0 29 -9.5t20 -22.5l424 -989q6 -13 -2 -27.5t-31 -14.5h-249q-16 0 -30 9.5t-21 22.5l-39 87q-7 13 -21 22.5t-28 9.5h-307q-17 0 -30.5 -9.5t-19.5 -22.5l-40 -87q-6 -13 -20 -22.5t-29 -9.5h-250 q-7 0 -15 3t-13 9t-6.5 14.5zM417.5 1120.5q-4.5 7.5 5.5 19.5l201 260q9 11 25 16t28 -1l210 -90q29 -14 4 -35l-207 -156q-12 -9 -30.5 -15t-32.5 -6h-185q-14 0 -18.5 7.5zM456.5 407.5q5.5 -9.5 22.5 -9.5h129q14 0 20.5 9.5t-0.5 22.5q-14 36 -34.5 85t-38.5 91 q-5 13 -12.5 13t-13.5 -13l-72 -176q-6 -13 -0.5 -22.5z" />
<glyph unicode="&#xc2;" d="M-33.5 26.5q-1.5 8.5 4.5 20.5l422 984q5 13 19 22.5t30 9.5h203q15 0 29 -9.5t20 -22.5l424 -989q6 -13 -2 -27.5t-31 -14.5h-249q-16 0 -30 9.5t-21 22.5l-39 87q-7 13 -21 22.5t-28 9.5h-307q-17 0 -30.5 -9.5t-19.5 -22.5l-40 -87q-6 -13 -20 -22.5t-29 -9.5h-250 q-7 0 -15 3t-13 9t-6.5 14.5zM210.5 1116q-3.5 8 4.5 19l200 252q8 12 25 20t31 8h134q14 0 31 -8t26 -20l202 -250q9 -11 5 -19t-18 -8h-208q-15 0 -31.5 7.5t-25.5 19.5l-27 31q-8 11 -21 10.5t-22 -12.5l-23 -31q-9 -11 -25 -19t-31 -8h-208q-15 0 -18.5 8zM456.5 407.5 q5.5 -9.5 22.5 -9.5h129q14 0 20.5 9.5t-0.5 22.5q-14 36 -34.5 85t-38.5 91q-5 13 -12.5 13t-13.5 -13l-72 -176q-6 -13 -0.5 -22.5z" />
<glyph unicode="&#xc3;" d="M-33.5 26.5q-1.5 8.5 4.5 20.5l422 984q5 13 19 22.5t30 9.5h203q15 0 29 -9.5t20 -22.5l424 -989q6 -13 -2 -27.5t-31 -14.5h-249q-16 0 -30 9.5t-21 22.5l-39 87q-7 13 -21 22.5t-28 9.5h-307q-17 0 -30.5 -9.5t-19.5 -22.5l-40 -87q-6 -13 -20 -22.5t-29 -9.5h-250 q-7 0 -15 3t-13 9t-6.5 14.5zM230 1194q10 34 26 70.5t39.5 67t55.5 50.5t75 21q51 1 86.5 -20t64 -39t52.5 -20t51 36q9 11 24 16.5t27 0.5l120 -44q14 -5 20.5 -18.5t2.5 -27.5q-13 -38 -33 -72t-46 -60.5t-59.5 -41.5t-73.5 -13q-41 3 -72 24.5t-56.5 38t-49 16 t-49.5 -39.5q-9 -12 -23.5 -18.5t-28.5 -3.5l-129 35q-14 2 -21.5 15.5t-2.5 26.5zM456.5 407.5q5.5 -9.5 22.5 -9.5h129q14 0 20.5 9.5t-0.5 22.5q-14 36 -34.5 85t-38.5 91q-5 13 -12.5 13t-13.5 -13l-72 -176q-6 -13 -0.5 -22.5z" />
<glyph unicode="&#xc4;" d="M-33.5 26.5q-1.5 8.5 4.5 20.5l422 984q5 13 19 22.5t30 9.5h203q15 0 29 -9.5t20 -22.5l424 -989q6 -13 -2 -27.5t-31 -14.5h-249q-16 0 -30 9.5t-21 22.5l-39 87q-7 13 -21 22.5t-28 9.5h-307q-17 0 -30.5 -9.5t-19.5 -22.5l-40 -87q-6 -13 -20 -22.5t-29 -9.5h-250 q-7 0 -15 3t-13 9t-6.5 14.5zM233 1265q0 29 10.5 55t30.5 45t46 30t56 11q61 0 100.5 -40.5t39.5 -100.5q0 -61 -39.5 -101t-100.5 -40q-30 0 -56 11t-46 30t-30.5 44.5t-10.5 55.5zM456.5 407.5q5.5 -9.5 22.5 -9.5h129q14 0 20.5 9.5t-0.5 22.5q-14 36 -34.5 85t-38.5 91 q-5 13 -12.5 13t-13.5 -13l-72 -176q-6 -13 -0.5 -22.5zM558 1265q0 29 11 55t30 45t45 30t57 11q59 0 100 -40.5t41 -100.5q0 -61 -41 -101t-100 -40q-61 0 -102 40t-41 101z" />
<glyph unicode="&#xc5;" d="M-33.5 26.5q-1.5 8.5 4.5 20.5l417 975q-19 25 -29 55.5t-10 64.5q0 39 15.5 74.5t41.5 61.5t61 41.5t75 15.5q39 0 75 -15.5t62 -41.5t41.5 -61.5t15.5 -74.5q0 -66 -39 -117l421 -983q6 -13 -2 -27.5t-31 -14.5h-249q-16 0 -30 9.5t-21 22.5l-39 87q-7 13 -21 22.5 t-28 9.5h-307q-17 0 -30.5 -9.5t-19.5 -22.5l-40 -87q-6 -13 -20 -22.5t-29 -9.5h-250q-7 0 -15 3t-13 9t-6.5 14.5zM456.5 407.5q5.5 -9.5 22.5 -9.5h129q14 0 20.5 9.5t-0.5 22.5q-14 36 -34.5 85t-38.5 91q-5 13 -12.5 13t-13.5 -13l-72 -176q-6 -13 -0.5 -22.5z M480 1140q0 -26 18 -44t44 -18q27 0 45 18t18 44q0 27 -18 45t-45 18q-26 0 -44 -18t-18 -45z" />
<glyph unicode="&#xc6;" horiz-adv-x="1543" d="M-55 12.5q-5 12.5 2 23.5l659 1001q7 11 23 20t31 9h700q16 0 25 -10t9 -25v-201q0 -14 -9.5 -24.5t-24.5 -10.5h-453q-14 0 -24 -10t-10 -25v-58q0 -14 9.5 -24.5t24.5 -10.5h394q17 0 26 -10t9 -24v-203q0 -14 -9.5 -24.5t-25.5 -10.5h-394q-14 0 -24 -10t-10 -24v-54 q0 -14 9.5 -24.5t24.5 -10.5h453q16 0 25 -10.5t9 -24.5v-202q0 -14 -9.5 -24.5t-24.5 -10.5h-742q-14 0 -24.5 10.5t-10.5 24.5v91q0 15 -9.5 25t-25.5 10h-153q-14 0 -30 -8.5t-23 -20.5q-17 -25 -34 -51.5t-33 -51.5q-9 -11 -24 -20t-32 -9h-255q-14 0 -19 12.5z M499 417.5q3 -10.5 32 -10.5h21q35 0 35 30v98q0 10 -7.5 12.5t-15.5 -7.5l-61 -98q-7 -14 -4 -24.5z" />
<glyph unicode="&#xc7;" horiz-adv-x="1136" d="M29 531q0 114 43.5 214t120 174t178.5 118t218 44q95 0 172.5 -22t140 -61.5t112.5 -95.5t93 -122q7 -12 2.5 -25.5t-17.5 -18.5l-207 -81q-14 -6 -28.5 -0.5t-21.5 17.5q-42 66 -102 102t-144 36q-56 0 -104.5 -23.5t-84.5 -61.5t-56.5 -89.5t-20.5 -104.5 q0 -55 20.5 -105.5t56.5 -88t85 -61t104 -23.5q80 0 144.5 38.5t102.5 99.5q7 12 21 18t28 -1l207 -81q13 -5 17.5 -17.5t-2.5 -26.5q-75 -123 -183 -203t-265 -94l-3 -2q-16 -3 -12 -17.5t29 -14.5q24 0 53 -16t51 -48q13 -21 20 -53.5t4 -63.5q-3 -51 -28 -86.5t-68 -55.5 q-33 -16 -65 -19t-44 -3q-48 2 -84 13t-58 22q-13 7 -17.5 22t2.5 28l26 57q6 12 19 17t28 3q14 -5 32.5 -8.5t41.5 -3.5h9.5t17 3.5t15.5 11t7 23.5q0 19 -18 25.5t-30 6.5q-16 -2 -29 -4.5t-23 -5.5q-14 -4 -30.5 -1.5t-25.5 14.5v1q-10 10 -13.5 27t0.5 31l32 78 q3 10 -3.5 16t-15.5 8q-96 20 -179 69t-143 120t-94 160.5t-34 190.5z" />
<glyph unicode="&#xc8;" horiz-adv-x="992" d="M77 35v995q0 14 10 24t25 10h740q14 0 24.5 -10t10.5 -24v-199q0 -14 -10 -24t-25 -10h-452q-14 0 -24.5 -10.5t-10.5 -24.5v-61q0 -14 10.5 -24.5t24.5 -10.5h394q14 0 24.5 -10.5t10.5 -24.5v-201q0 -14 -10 -24.5t-25 -10.5h-394q-14 0 -24.5 -10t-10.5 -24v-56 q0 -14 10.5 -24t24.5 -10h452q14 0 24.5 -10.5t10.5 -24.5v-201q0 -14 -10 -24.5t-25 -10.5h-740q-14 0 -24.5 10.5t-10.5 24.5zM189 1290q-25 21 4 35l210 90q12 6 28.5 1.5t25.5 -16.5l202 -260q8 -11 4.5 -19t-18.5 -8h-184q-14 0 -32.5 6t-30.5 15z" />
<glyph unicode="&#xc9;" horiz-adv-x="992" d="M77 35v995q0 14 10 24t25 10h740q14 0 24.5 -10t10.5 -24v-199q0 -14 -10 -24t-25 -10h-452q-14 0 -24.5 -10.5t-10.5 -24.5v-61q0 -14 10.5 -24.5t24.5 -10.5h394q14 0 24.5 -10.5t10.5 -24.5v-201q0 -14 -10 -24.5t-25 -10.5h-394q-14 0 -24.5 -10t-10.5 -24v-56 q0 -14 10.5 -24t24.5 -10h452q14 0 24.5 -10.5t10.5 -24.5v-201q0 -14 -10 -24.5t-25 -10.5h-740q-14 0 -24.5 10.5t-10.5 24.5zM279.5 1120.5q-4.5 7.5 5.5 19.5l201 260q8 11 24.5 16t29.5 -1l209 -90q29 -14 4 -35l-208 -156q-11 -9 -29.5 -15t-32.5 -6h-185 q-14 0 -18.5 7.5z" />
<glyph unicode="&#xca;" horiz-adv-x="992" d="M77 35v995q0 14 10 24t25 10h740q14 0 24.5 -10t10.5 -24v-199q0 -14 -10 -24t-25 -10h-452q-14 0 -24.5 -10.5t-10.5 -24.5v-61q0 -14 10.5 -24.5t24.5 -10.5h394q14 0 24.5 -10.5t10.5 -24.5v-201q0 -14 -10 -24.5t-25 -10.5h-394q-14 0 -24.5 -10t-10.5 -24v-56 q0 -14 10.5 -24t24.5 -10h452q14 0 24.5 -10.5t10.5 -24.5v-201q0 -14 -10 -24.5t-25 -10.5h-740q-14 0 -24.5 10.5t-10.5 24.5zM144.5 1116q-3.5 8 5.5 19l199 252q9 12 25.5 20t30.5 8h135q14 0 30.5 -8t25.5 -20l202 -250q9 -11 5 -19t-18 -8h-208q-14 0 -31 7.5 t-26 19.5l-26 31q-8 11 -21.5 10.5t-21.5 -12.5l-24 -31q-8 -11 -24 -19t-31 -8h-209q-15 0 -18.5 8z" />
<glyph unicode="&#xcb;" horiz-adv-x="992" d="M77 35v995q0 14 10 24t25 10h740q14 0 24.5 -10t10.5 -24v-199q0 -14 -10 -24t-25 -10h-452q-14 0 -24.5 -10.5t-10.5 -24.5v-61q0 -14 10.5 -24.5t24.5 -10.5h394q14 0 24.5 -10.5t10.5 -24.5v-201q0 -14 -10 -24.5t-25 -10.5h-394q-14 0 -24.5 -10t-10.5 -24v-56 q0 -14 10.5 -24t24.5 -10h452q14 0 24.5 -10.5t10.5 -24.5v-201q0 -14 -10 -24.5t-25 -10.5h-740q-14 0 -24.5 10.5t-10.5 24.5zM168 1265q0 29 10.5 55t30.5 45t45.5 30t56.5 11q61 0 100.5 -40.5t39.5 -100.5q0 -61 -39.5 -101t-100.5 -40q-31 0 -56.5 11t-45.5 30 t-30.5 44.5t-10.5 55.5zM493 1265q0 29 11 55t29.5 45t45 30t56.5 11q60 0 101 -40.5t41 -100.5q0 -61 -41 -101t-101 -40q-61 0 -101.5 40t-40.5 101z" />
<glyph unicode="&#xcc;" horiz-adv-x="494" d="M-116 1290q-25 21 4 35l209 90q13 6 29.5 1.5t24.5 -16.5l203 -260q8 -11 4 -19t-18 -8h-185q-14 0 -32.5 6t-29.5 15zM90 35v993q0 14 9.5 24.5t25.5 10.5h219q15 0 25.5 -10.5t10.5 -24.5v-993q0 -14 -10.5 -24.5t-25.5 -10.5h-219q-16 0 -25.5 10.5t-9.5 24.5z" />
<glyph unicode="&#xcd;" horiz-adv-x="494" d="M90 35v993q0 14 9.5 24.5t25.5 10.5h219q15 0 25.5 -10.5t10.5 -24.5v-993q0 -14 -10.5 -24.5t-25.5 -10.5h-219q-16 0 -25.5 10.5t-9.5 24.5zM100.5 1120.5q-4.5 7.5 5.5 19.5l201 260q8 11 24.5 16t29.5 -1l209 -90q29 -14 4 -35l-208 -156q-11 -9 -29 -15t-33 -6h-185 q-14 0 -18.5 7.5z" />
<glyph unicode="&#xce;" horiz-adv-x="494" d="M-95.5 1116q-3.5 8 5.5 19l199 252q9 12 25.5 20t30.5 8h135q14 0 30.5 -8t25.5 -20l202 -250q9 -11 5 -19t-18 -8h-208q-14 0 -30.5 7.5t-26.5 19.5l-26 31q-8 11 -21.5 10.5t-21.5 -12.5l-24 -31q-8 -11 -24 -19t-31 -8h-209q-15 0 -18.5 8zM90 35v993q0 14 9.5 24.5 t25.5 10.5h219q15 0 25.5 -10.5t10.5 -24.5v-993q0 -14 -10.5 -24.5t-25.5 -10.5h-219q-16 0 -25.5 10.5t-9.5 24.5z" />
<glyph unicode="&#xcf;" horiz-adv-x="494" d="M-71 1265q0 29 10.5 55t30.5 45t46 30t56 11q61 0 100.5 -40.5t39.5 -100.5q0 -61 -39.5 -101t-100.5 -40q-30 0 -56 11t-46 30t-30.5 44.5t-10.5 55.5zM90 35v993q0 14 9.5 24.5t25.5 10.5h219q15 0 25.5 -10.5t10.5 -24.5v-993q0 -14 -10.5 -24.5t-25.5 -10.5h-219 q-16 0 -25.5 10.5t-9.5 24.5zM254 1265q0 29 11 55t30 45t45 30t57 11q60 0 100.5 -40.5t40.5 -100.5q0 -61 -40.5 -101t-100.5 -40q-61 0 -102 40t-41 101z" />
<glyph unicode="&#xd0;" horiz-adv-x="1186" d="M21 429v197q0 16 9 25t25 9h37q14 0 24 10t10 25v335q0 16 10 25t25 9h396q228 0 374 -133q79 -73 119.5 -173.5t40.5 -225.5q0 -113 -35 -208t-100 -167q-6 -6 -10.5 -9.5t-7.5 -6.5l-7 -8l-8 -7q-3 -2 -8.5 -6t-11.5 -8q-69 -55 -156.5 -83.5t-189.5 -28.5h-396 q-16 0 -25.5 10.5t-9.5 24.5v324q0 17 -10 26t-24 9h-37q-16 0 -25 10.5t-9 24.5zM415 302q0 -14 9 -24t25 -10h108q42 0 86 10t78.5 38t57 80t22.5 135t-22.5 134.5t-58 80t-79 38.5t-84.5 10h-108q-16 0 -25 -9.5t-9 -25.5v-64q0 -14 9 -24.5t25 -10.5h96q14 0 24.5 -9.5 t10.5 -24.5v-197q0 -14 -10.5 -24.5t-24.5 -10.5h-96q-16 0 -25 -9.5t-9 -25.5v-57z" />
<glyph unicode="&#xd1;" horiz-adv-x="1218" d="M80 35v995q0 14 10 24t25 10h218q14 0 30.5 -7.5t24.5 -19.5l378 -534q9 -11 18.5 -10t9.5 16v521q0 14 10 24t25 10h215q14 0 24.5 -10t10.5 -24v-995q0 -14 -10 -24.5t-25 -10.5h-215q-15 0 -31 9t-24 20l-380 534q-8 11 -18 9t-10 -17v-520q0 -14 -10 -24.5t-24 -10.5 h-217q-14 0 -24.5 10.5t-10.5 24.5zM246 1194q10 34 26 70.5t39 67t55 50.5t76 21q51 1 86.5 -20t64 -39t52.5 -20t52 36q8 11 22.5 16.5t28.5 0.5l119 -44q14 -5 21 -18.5t2 -27.5q-13 -38 -32.5 -72t-46 -60.5t-59.5 -41.5t-75 -13q-40 3 -70.5 24.5t-57 38t-49.5 16 t-49 -39.5q-9 -12 -23.5 -18.5t-29.5 -3.5l-127 35q-15 2 -22.5 15.5t-2.5 26.5z" />
<glyph unicode="&#xd2;" horiz-adv-x="1203" d="M32 532q0 114 43.5 214t118 175t174.5 118.5t213 43.5q114 0 214.5 -43.5t175.5 -118.5t118 -175.5t43 -213.5t-43 -213.5t-118 -175.5t-175.5 -118.5t-214.5 -43.5q-113 0 -213 43.5t-174.5 118.5t-118 175.5t-43.5 213.5zM288 1290q-25 21 5 35l209 90q13 6 29 1.5 t24 -16.5l203 -260q8 -11 4.5 -19t-17.5 -8h-186q-14 0 -32 6t-30 15zM320 532q0 -55 20.5 -104.5t56 -87.5t83.5 -60.5t101 -22.5q54 0 102 22.5t84.5 60.5t57 87.5t20.5 104.5q0 54 -20.5 104.5t-57 87t-84.5 59.5t-102 23q-53 0 -101 -23t-83.5 -59.5t-56 -87 t-20.5 -104.5z" />
<glyph unicode="&#xd3;" horiz-adv-x="1203" d="M32 532q0 114 43.5 214t118 175t174.5 118.5t213 43.5q114 0 214.5 -43.5t175.5 -118.5t118 -175.5t43 -213.5t-43 -213.5t-118 -175.5t-175.5 -118.5t-214.5 -43.5q-113 0 -213 43.5t-174.5 118.5t-118 175.5t-43.5 213.5zM320 532q0 -55 20.5 -104.5t56 -87.5 t83.5 -60.5t101 -22.5q54 0 102 22.5t84.5 60.5t57 87.5t20.5 104.5q0 54 -20.5 104.5t-57 87t-84.5 59.5t-102 23q-53 0 -101 -23t-83.5 -59.5t-56 -87t-20.5 -104.5zM397.5 1120.5q-4.5 7.5 5.5 19.5l201 260q8 11 24.5 16t28.5 -1l210 -90q29 -14 4 -35l-208 -156 q-11 -9 -29.5 -15t-32.5 -6h-185q-14 0 -18.5 7.5z" />
<glyph unicode="&#xd4;" horiz-adv-x="1203" d="M32 532q0 114 43.5 214t118 175t174.5 118.5t213 43.5q114 0 214.5 -43.5t175.5 -118.5t118 -175.5t43 -213.5t-43 -213.5t-118 -175.5t-175.5 -118.5t-214.5 -43.5q-113 0 -213 43.5t-174.5 118.5t-118 175.5t-43.5 213.5zM251 1116q-4 8 5 19l199 252q9 12 26 20t31 8 h133q15 0 32 -8t25 -20l203 -250q8 -11 4.5 -19t-18.5 -8h-207q-14 0 -31.5 7.5t-25.5 19.5l-26 31q-9 11 -22 10.5t-22 -12.5l-23 -31q-9 -11 -25 -19t-30 -8h-210q-14 0 -18 8zM320 532q0 -55 20.5 -104.5t56 -87.5t83.5 -60.5t101 -22.5q54 0 102 22.5t84.5 60.5t57 87.5 t20.5 104.5q0 54 -20.5 104.5t-57 87t-84.5 59.5t-102 23q-53 0 -101 -23t-83.5 -59.5t-56 -87t-20.5 -104.5z" />
<glyph unicode="&#xd5;" horiz-adv-x="1203" d="M32 532q0 114 43.5 214t118 175t174.5 118.5t213 43.5q114 0 214.5 -43.5t175.5 -118.5t118 -175.5t43 -213.5t-43 -213.5t-118 -175.5t-175.5 -118.5t-214.5 -43.5q-113 0 -213 43.5t-174.5 118.5t-118 175.5t-43.5 213.5zM246 1194q10 34 26 70.5t39 67t55 50.5t76 21 q51 1 86.5 -20t64 -39t52.5 -20t52 36q8 11 22.5 16.5t28.5 0.5l119 -44q14 -5 21 -18.5t2 -27.5q-13 -38 -32.5 -72t-46 -60.5t-59.5 -41.5t-75 -13q-40 3 -70.5 24.5t-57 38t-49.5 16t-49 -39.5q-9 -12 -23.5 -18.5t-29.5 -3.5l-127 35q-15 2 -22.5 15.5t-2.5 26.5z M320 532q0 -55 20.5 -104.5t56 -87.5t83.5 -60.5t101 -22.5q54 0 102 22.5t84.5 60.5t57 87.5t20.5 104.5q0 54 -20.5 104.5t-57 87t-84.5 59.5t-102 23q-53 0 -101 -23t-83.5 -59.5t-56 -87t-20.5 -104.5z" />
<glyph unicode="&#xd6;" horiz-adv-x="1203" d="M32 532q0 114 43.5 214t118 175t174.5 118.5t213 43.5q114 0 214.5 -43.5t175.5 -118.5t118 -175.5t43 -213.5t-43 -213.5t-118 -175.5t-175.5 -118.5t-214.5 -43.5q-113 0 -213 43.5t-174.5 118.5t-118 175.5t-43.5 213.5zM276 1265q0 29 11 55t30.5 45t46 30t56.5 11 q61 0 100 -40.5t39 -100.5q0 -61 -39 -101t-100 -40q-30 0 -56.5 11t-46 30t-30.5 44.5t-11 55.5zM320 532q0 -55 20.5 -104.5t56 -87.5t83.5 -60.5t101 -22.5q54 0 102 22.5t84.5 60.5t57 87.5t20.5 104.5q0 54 -20.5 104.5t-57 87t-84.5 59.5t-102 23q-53 0 -101 -23 t-83.5 -59.5t-56 -87t-20.5 -104.5zM602 1265q0 29 11 55t30 45t45 30t57 11q59 0 99.5 -40.5t40.5 -100.5q0 -61 -40.5 -101t-99.5 -40q-61 0 -102 40t-41 101z" />
<glyph unicode="&#xd7;" horiz-adv-x="732" d="M-11 720q0 14 11 25l151 150q12 10 25.5 10t24.5 -10l119 -118q12 -10 25.5 -10.5t23.5 10.5l121 119q11 10 25 10t26 -10l150 -148q11 -10 11 -24.5t-11 -24.5l-122 -122q-10 -10 -10.5 -23.5t10.5 -25.5l120 -123q12 -11 12 -25t-12 -24l-149 -148q-12 -10 -25.5 -10 t-26.5 11l-119 120q-10 11 -23.5 11t-25.5 -11l-120 -121q-10 -10 -24.5 -10t-24.5 11l-148 150q-10 12 -10 25.5t10 23.5l118 118q11 11 11 25.5t-11 24.5l-121 121q-11 9 -11 23z" />
<glyph unicode="&#xd8;" horiz-adv-x="1229" d="M35 532q0 114 43.5 214t118 175t174.5 118.5t213 43.5q125 0 237 -53q13 -6 28.5 -4t25.5 13l39 46q10 11 24 12t26 -9l125 -111q11 -10 12 -24t-9 -25l-39 -45q-10 -12 -11 -27t7 -29q42 -65 64 -139.5t22 -155.5q0 -113 -43 -213.5t-118 -175.5t-175.5 -118.5 t-214.5 -43.5q-62 0 -121 14t-112 38q-13 6 -28.5 3t-25.5 -14l-43 -47q-10 -11 -23.5 -12t-25.5 9l-126 110q-12 8 -13 22t9 25l43 51q10 12 10.5 28t-7.5 28q-41 65 -63.5 139t-22.5 157zM323 532q0 -29 7 -66q3 -14 14 -16t21 9l273 309q10 11 7.5 21t-17.5 13 q-11 3 -21.5 3.5t-22.5 0.5q-54 0 -101.5 -23t-83 -59.5t-56 -87t-20.5 -104.5zM528 274.5q3 -9.5 17 -12.5q19 -4 39 -5q54 0 102 22.5t84.5 60.5t57 87.5t20.5 104.5q0 30 -7 63q-3 14 -13.5 16t-20.5 -9l-272 -307q-10 -11 -7 -20.5z" />
<glyph unicode="&#xd9;" horiz-adv-x="1145" d="M79 439v589q0 14 10 24.5t25 10.5h219q14 0 24.5 -10.5t10.5 -24.5v-589q0 -57 18 -94t45 -58t57.5 -30t55.5 -9t55.5 9t56.5 30t44.5 58.5t18.5 93.5v589q0 14 9.5 24.5t24.5 10.5h220q14 0 24 -10.5t10 -24.5v-589q0 -103 -32.5 -187t-93.5 -144t-147 -93t-190 -33 q-105 0 -190.5 33t-146.5 93t-94.5 144t-33.5 187zM256 1290q-25 21 5 35l209 90q13 6 29 1.5t24 -16.5l203 -260q8 -11 4.5 -19t-17.5 -8h-185q-15 0 -33 6t-30 15z" />
<glyph unicode="&#xda;" horiz-adv-x="1145" d="M79 439v589q0 14 10 24.5t25 10.5h219q14 0 24.5 -10.5t10.5 -24.5v-589q0 -57 18 -94t45 -58t57.5 -30t55.5 -9t55.5 9t56.5 30t44.5 58.5t18.5 93.5v589q0 14 9.5 24.5t24.5 10.5h220q14 0 24 -10.5t10 -24.5v-589q0 -103 -32.5 -187t-93.5 -144t-147 -93t-190 -33 q-105 0 -190.5 33t-146.5 93t-94.5 144t-33.5 187zM344.5 1120.5q-4.5 7.5 6.5 19.5l200 260q8 11 24.5 16t29.5 -1l209 -90q29 -14 5 -35l-208 -156q-12 -9 -30 -15t-33 -6h-184q-15 0 -19.5 7.5z" />
<glyph unicode="&#xdb;" horiz-adv-x="1145" d="M79 439v589q0 14 10 24.5t25 10.5h219q14 0 24.5 -10.5t10.5 -24.5v-589q0 -57 18 -94t45 -58t57.5 -30t55.5 -9t55.5 9t56.5 30t44.5 58.5t18.5 93.5v589q0 14 9.5 24.5t24.5 10.5h220q14 0 24 -10.5t10 -24.5v-589q0 -103 -32.5 -187t-93.5 -144t-147 -93t-190 -33 q-105 0 -190.5 33t-146.5 93t-94.5 144t-33.5 187zM213 1116q-4 8 5 19l199 252q9 12 26 20t31 8h134q14 0 31 -8t26 -20l202 -250q8 -11 4.5 -19t-18.5 -8h-208q-14 0 -30.5 7.5t-25.5 19.5l-26 31q-8 11 -21.5 10.5t-22.5 -12.5l-23 -31q-9 -11 -25 -19t-30 -8h-210 q-14 0 -18 8z" />
<glyph unicode="&#xdc;" horiz-adv-x="1145" d="M79 439v589q0 14 10 24.5t25 10.5h219q14 0 24.5 -10.5t10.5 -24.5v-589q0 -57 18 -94t45 -58t57.5 -30t55.5 -9t55.5 9t56.5 30t44.5 58.5t18.5 93.5v589q0 14 9.5 24.5t24.5 10.5h220q14 0 24 -10.5t10 -24.5v-589q0 -103 -32.5 -187t-93.5 -144t-147 -93t-190 -33 q-105 0 -190.5 33t-146.5 93t-94.5 144t-33.5 187zM237 1265q0 29 11 55t30.5 45t46 30t56.5 11q61 0 100 -40.5t39 -100.5q0 -61 -39 -101t-100 -40q-30 0 -56.5 11t-46 30t-30.5 44.5t-11 55.5zM563 1265q0 29 10.5 55t30 45t45 30t56.5 11q60 0 100.5 -40.5t40.5 -100.5 q0 -61 -40.5 -101t-100.5 -40q-61 0 -101.5 40t-40.5 101z" />
<glyph unicode="&#xdd;" horiz-adv-x="1030" d="M-33.5 1049q4.5 14 19.5 14h258q14 0 30 -8.5t23 -22.5l179 -311q7 -11 17 -11.5t17 11.5l178 311q7 13 22.5 22t29.5 9h262q14 0 21 -10t-5 -31l-363 -589q-7 -13 -13.5 -31.5t-6.5 -33.5v-333q0 -14 -10 -24.5t-24 -10.5h-220q-14 0 -24.5 10.5t-10.5 24.5v331 q0 15 -5 34.5t-12 31.5q-88 149 -178.5 293.5t-181.5 296.5q-7 13 -2.5 27zM301.5 1120.5q-4.5 7.5 5.5 19.5l201 260q8 11 24.5 16t29.5 -1l208 -90q29 -14 5 -35l-208 -156q-11 -9 -29.5 -15t-32.5 -6h-185q-14 0 -18.5 7.5z" />
<glyph unicode="&#xde;" horiz-adv-x="1033" d="M77 35v995q0 16 10 25t25 9h220q14 0 24 -9t10 -25v-69q0 -14 10.5 -24t24.5 -10h156q81 0 153 -31.5t125 -84.5t84.5 -125.5t31.5 -153.5t-31.5 -152.5t-84.5 -125t-125 -84t-153 -30.5h-156q-14 0 -24.5 -9.5t-10.5 -26.5v-69q0 -14 -10 -24.5t-24 -10.5h-220 q-14 0 -24.5 10.5t-10.5 24.5zM366 442q0 -14 10.5 -24.5t24.5 -10.5h156q22 0 41.5 11t33 29t22.5 40.5t9 44.5q0 24 -9 46.5t-22.5 39.5t-33 28t-41.5 11h-156q-14 0 -24.5 -9.5t-10.5 -24.5v-181z" />
<glyph unicode="&#xdf;" horiz-adv-x="1897" d="M29.5 166.5q-1.5 15.5 6.5 26.5l112 162q9 11 24 14t26 -4q79 -51 155.5 -80t143.5 -29q64 0 97.5 18.5t33.5 54.5q0 19 -14.5 29.5t-38.5 18t-56 12t-65 11.5q-32 5 -75 13.5t-88 23.5t-89.5 38t-79.5 60t-56 87t-21 118q0 100 39.5 165.5t99.5 104.5t134.5 54t143.5 15 q122 0 219 -36t186 -104q11 -10 12.5 -24.5t-6.5 -26.5l-114 -161q-9 -11 -23.5 -14.5t-26.5 6.5q-74 46 -137.5 65.5t-117.5 19.5q-17 0 -38 -1t-39.5 -6t-31 -16.5t-12.5 -31.5q0 -21 30.5 -36.5t70 -27.5t75.5 -18.5t46 -7.5q53 -10 115.5 -30t117 -58.5t91.5 -100.5 t37 -155q0 -87 -30.5 -150t-85 -103.5t-130.5 -60.5t-169 -20q-76 0 -141.5 12.5t-122.5 34.5t-105.5 51.5t-89.5 63.5q-11 8 -12.5 23.5zM964.5 166.5q-1.5 15.5 6.5 26.5l112 162q9 11 23.5 14t25.5 -4q79 -51 156 -80t144 -29q64 0 97.5 18.5t33.5 54.5q0 19 -14.5 29.5 t-38.5 18t-56 12t-65 11.5q-32 5 -75 13.5t-88 23.5t-89.5 38t-79.5 60t-56 87t-21 118q0 100 39.5 165.5t99.5 104.5t134.5 54t143.5 15q122 0 219 -36t185 -104q12 -10 13.5 -24.5t-6.5 -26.5l-114 -161q-8 -11 -23 -14.5t-27 6.5q-73 46 -137 65.5t-118 19.5 q-17 0 -37.5 -1t-39.5 -6t-31.5 -16.5t-12.5 -31.5q0 -21 30.5 -36.5t69.5 -27.5t75.5 -18.5t46.5 -7.5q53 -10 115.5 -30t117 -58.5t91.5 -100.5t37 -155q0 -87 -30.5 -150t-85 -103.5t-131 -60.5t-169.5 -20q-75 0 -140.5 12.5t-122.5 34.5t-105.5 51.5t-89.5 63.5 q-11 8 -12.5 23.5z" />
<glyph unicode="&#xe0;" d="M-33.5 26.5q-1.5 8.5 4.5 20.5l422 984q5 13 19 22.5t30 9.5h203q15 0 29 -9.5t20 -22.5l424 -989q6 -13 -2 -27.5t-31 -14.5h-249q-16 0 -30 9.5t-21 22.5l-39 87q-7 13 -21 22.5t-28 9.5h-307q-17 0 -30.5 -9.5t-19.5 -22.5l-40 -87q-6 -13 -20 -22.5t-29 -9.5h-250 q-7 0 -15 3t-13 9t-6.5 14.5zM205 1290q-25 21 4 35l210 90q13 6 29 1.5t25 -16.5l201 -260q9 -11 5.5 -19t-17.5 -8h-185q-14 0 -32.5 6t-29.5 15zM456.5 407.5q5.5 -9.5 22.5 -9.5h129q14 0 20.5 9.5t-0.5 22.5q-14 36 -34.5 85t-38.5 91q-5 13 -12.5 13t-13.5 -13 l-72 -176q-6 -13 -0.5 -22.5z" />
<glyph unicode="&#xe1;" d="M-33.5 26.5q-1.5 8.5 4.5 20.5l422 984q5 13 19 22.5t30 9.5h203q15 0 29 -9.5t20 -22.5l424 -989q6 -13 -2 -27.5t-31 -14.5h-249q-16 0 -30 9.5t-21 22.5l-39 87q-7 13 -21 22.5t-28 9.5h-307q-17 0 -30.5 -9.5t-19.5 -22.5l-40 -87q-6 -13 -20 -22.5t-29 -9.5h-250 q-7 0 -15 3t-13 9t-6.5 14.5zM417.5 1120.5q-4.5 7.5 5.5 19.5l201 260q9 11 25 16t28 -1l210 -90q29 -14 4 -35l-207 -156q-12 -9 -30.5 -15t-32.5 -6h-185q-14 0 -18.5 7.5zM456.5 407.5q5.5 -9.5 22.5 -9.5h129q14 0 20.5 9.5t-0.5 22.5q-14 36 -34.5 85t-38.5 91 q-5 13 -12.5 13t-13.5 -13l-72 -176q-6 -13 -0.5 -22.5z" />
<glyph unicode="&#xe2;" d="M-33.5 26.5q-1.5 8.5 4.5 20.5l422 984q5 13 19 22.5t30 9.5h203q15 0 29 -9.5t20 -22.5l424 -989q6 -13 -2 -27.5t-31 -14.5h-249q-16 0 -30 9.5t-21 22.5l-39 87q-7 13 -21 22.5t-28 9.5h-307q-17 0 -30.5 -9.5t-19.5 -22.5l-40 -87q-6 -13 -20 -22.5t-29 -9.5h-250 q-7 0 -15 3t-13 9t-6.5 14.5zM210.5 1116q-3.5 8 4.5 19l200 252q8 12 25 20t31 8h134q14 0 31 -8t26 -20l202 -250q9 -11 5 -19t-18 -8h-208q-15 0 -31.5 7.5t-25.5 19.5l-27 31q-8 11 -21 10.5t-22 -12.5l-23 -31q-9 -11 -25 -19t-31 -8h-208q-15 0 -18.5 8zM456.5 407.5 q5.5 -9.5 22.5 -9.5h129q14 0 20.5 9.5t-0.5 22.5q-14 36 -34.5 85t-38.5 91q-5 13 -12.5 13t-13.5 -13l-72 -176q-6 -13 -0.5 -22.5z" />
<glyph unicode="&#xe3;" d="M-33.5 26.5q-1.5 8.5 4.5 20.5l422 984q5 13 19 22.5t30 9.5h203q15 0 29 -9.5t20 -22.5l424 -989q6 -13 -2 -27.5t-31 -14.5h-249q-16 0 -30 9.5t-21 22.5l-39 87q-7 13 -21 22.5t-28 9.5h-307q-17 0 -30.5 -9.5t-19.5 -22.5l-40 -87q-6 -13 -20 -22.5t-29 -9.5h-250 q-7 0 -15 3t-13 9t-6.5 14.5zM230 1194q10 34 26 70.5t39.5 67t55.5 50.5t75 21q51 1 86.5 -20t64 -39t52.5 -20t51 36q9 11 24 16.5t27 0.5l120 -44q14 -5 20.5 -18.5t2.5 -27.5q-13 -38 -33 -72t-46 -60.5t-59.5 -41.5t-73.5 -13q-41 3 -72 24.5t-56.5 38t-49 16 t-49.5 -39.5q-9 -12 -23.5 -18.5t-28.5 -3.5l-129 35q-14 2 -21.5 15.5t-2.5 26.5zM456.5 407.5q5.5 -9.5 22.5 -9.5h129q14 0 20.5 9.5t-0.5 22.5q-14 36 -34.5 85t-38.5 91q-5 13 -12.5 13t-13.5 -13l-72 -176q-6 -13 -0.5 -22.5z" />
<glyph unicode="&#xe4;" d="M-33.5 26.5q-1.5 8.5 4.5 20.5l422 984q5 13 19 22.5t30 9.5h203q15 0 29 -9.5t20 -22.5l424 -989q6 -13 -2 -27.5t-31 -14.5h-249q-16 0 -30 9.5t-21 22.5l-39 87q-7 13 -21 22.5t-28 9.5h-307q-17 0 -30.5 -9.5t-19.5 -22.5l-40 -87q-6 -13 -20 -22.5t-29 -9.5h-250 q-7 0 -15 3t-13 9t-6.5 14.5zM233 1265q0 29 10.5 55t30.5 45t46 30t56 11q61 0 100.5 -40.5t39.5 -100.5q0 -61 -39.5 -101t-100.5 -40q-30 0 -56 11t-46 30t-30.5 44.5t-10.5 55.5zM456.5 407.5q5.5 -9.5 22.5 -9.5h129q14 0 20.5 9.5t-0.5 22.5q-14 36 -34.5 85t-38.5 91 q-5 13 -12.5 13t-13.5 -13l-72 -176q-6 -13 -0.5 -22.5zM558 1265q0 29 11 55t30 45t45 30t57 11q59 0 100 -40.5t41 -100.5q0 -61 -41 -101t-100 -40q-61 0 -102 40t-41 101z" />
<glyph unicode="&#xe5;" d="M-33.5 26.5q-1.5 8.5 4.5 20.5l417 975q-19 25 -29 55.5t-10 64.5q0 39 15.5 74.5t41.5 61.5t61 41.5t75 15.5q39 0 75 -15.5t62 -41.5t41.5 -61.5t15.5 -74.5q0 -66 -39 -117l421 -983q6 -13 -2 -27.5t-31 -14.5h-249q-16 0 -30 9.5t-21 22.5l-39 87q-7 13 -21 22.5 t-28 9.5h-307q-17 0 -30.5 -9.5t-19.5 -22.5l-40 -87q-6 -13 -20 -22.5t-29 -9.5h-250q-7 0 -15 3t-13 9t-6.5 14.5zM456.5 407.5q5.5 -9.5 22.5 -9.5h129q14 0 20.5 9.5t-0.5 22.5q-14 36 -34.5 85t-38.5 91q-5 13 -12.5 13t-13.5 -13l-72 -176q-6 -13 -0.5 -22.5z M480 1140q0 -26 18 -44t44 -18q27 0 45 18t18 44q0 27 -18 45t-45 18q-26 0 -44 -18t-18 -45z" />
<glyph unicode="&#xe6;" horiz-adv-x="1543" d="M-60.5 9q-4.5 9 3.5 20l663 1008q7 11 23 20t31 9h700q16 0 25 -10t9 -25v-201q0 -14 -9.5 -24.5t-24.5 -10.5h-453q-14 0 -24 -10t-10 -25v-58q0 -14 9.5 -24.5t24.5 -10.5h394q17 0 26 -10t9 -24v-203q0 -14 -9.5 -24.5t-25.5 -10.5h-394q-14 0 -24 -10t-10 -24v-54 q0 -14 9.5 -24.5t24.5 -10.5h453q16 0 25 -10.5t9 -24.5v-202q0 -14 -9.5 -24.5t-24.5 -10.5h-742q-14 0 -24.5 10.5t-10.5 24.5v91q0 15 -9.5 25t-25.5 10h-153q-14 0 -30 -8.5t-23 -20.5q-17 -25 -34 -51.5t-33 -51.5q-9 -11 -24 -20t-32 -9h-261q-14 0 -18.5 9zM503 442 q-7 -14 1 -24.5t37 -10.5h7q16 0 27.5 7.5t11.5 22.5v98q0 17 -5 18t-12 -13z" />
<glyph unicode="&#xe7;" horiz-adv-x="1136" d="M29 531q0 114 43.5 214t120 174t178.5 118t218 44q95 0 172.5 -22t140 -61.5t112.5 -95.5t93 -122q7 -12 2.5 -25.5t-17.5 -18.5l-207 -81q-14 -6 -28.5 -0.5t-21.5 17.5q-42 66 -102 102t-144 36q-56 0 -104.5 -23.5t-84.5 -61.5t-56.5 -89.5t-20.5 -104.5 q0 -55 20.5 -105.5t56.5 -88t85 -61t104 -23.5q80 0 144.5 38.5t102.5 99.5q7 12 21 18t28 -1l207 -81q13 -5 17.5 -17.5t-2.5 -26.5q-75 -123 -183 -203t-265 -94l-3 -2q-16 -3 -12 -17.5t29 -14.5q24 0 53 -16t51 -48q13 -21 20 -53.5t4 -63.5q-3 -51 -28 -86.5t-68 -55.5 q-33 -16 -65 -19t-44 -3q-48 2 -84 13t-58 22q-13 7 -17.5 22t2.5 28l26 57q6 12 19 17t28 3q14 -5 32.5 -8.5t41.5 -3.5h9.5t17 3.5t15.5 11t7 23.5q0 19 -18 25.5t-30 6.5q-16 -2 -29 -4.5t-23 -5.5q-14 -4 -30.5 -1.5t-25.5 14.5v1q-10 10 -13.5 27t0.5 31l32 78 q3 10 -3.5 16t-15.5 8q-96 20 -179 69t-143 120t-94 160.5t-34 190.5z" />
<glyph unicode="&#xe8;" horiz-adv-x="992" d="M77 35v995q0 14 10 24t25 10h740q14 0 24.5 -10t10.5 -24v-199q0 -14 -10 -24t-25 -10h-452q-14 0 -24.5 -10.5t-10.5 -24.5v-61q0 -14 10.5 -24.5t24.5 -10.5h394q14 0 24.5 -10.5t10.5 -24.5v-201q0 -14 -10 -24.5t-25 -10.5h-394q-14 0 -24.5 -10t-10.5 -24v-56 q0 -14 10.5 -24t24.5 -10h452q14 0 24.5 -10.5t10.5 -24.5v-201q0 -14 -10 -24.5t-25 -10.5h-740q-14 0 -24.5 10.5t-10.5 24.5zM189 1290q-25 21 4 35l210 90q12 6 28.5 1.5t25.5 -16.5l202 -260q8 -11 4.5 -19t-18.5 -8h-184q-14 0 -32.5 6t-30.5 15z" />
<glyph unicode="&#xe9;" horiz-adv-x="992" d="M77 35v995q0 14 10 24t25 10h740q14 0 24.5 -10t10.5 -24v-199q0 -14 -10 -24t-25 -10h-452q-14 0 -24.5 -10.5t-10.5 -24.5v-61q0 -14 10.5 -24.5t24.5 -10.5h394q14 0 24.5 -10.5t10.5 -24.5v-201q0 -14 -10 -24.5t-25 -10.5h-394q-14 0 -24.5 -10t-10.5 -24v-56 q0 -14 10.5 -24t24.5 -10h452q14 0 24.5 -10.5t10.5 -24.5v-201q0 -14 -10 -24.5t-25 -10.5h-740q-14 0 -24.5 10.5t-10.5 24.5zM279.5 1120.5q-4.5 7.5 5.5 19.5l201 260q8 11 24.5 16t29.5 -1l209 -90q29 -14 4 -35l-208 -156q-11 -9 -29.5 -15t-32.5 -6h-185 q-14 0 -18.5 7.5z" />
<glyph unicode="&#xea;" horiz-adv-x="992" d="M77 35v995q0 14 10 24t25 10h740q14 0 24.5 -10t10.5 -24v-199q0 -14 -10 -24t-25 -10h-452q-14 0 -24.5 -10.5t-10.5 -24.5v-61q0 -14 10.5 -24.5t24.5 -10.5h394q14 0 24.5 -10.5t10.5 -24.5v-201q0 -14 -10 -24.5t-25 -10.5h-394q-14 0 -24.5 -10t-10.5 -24v-56 q0 -14 10.5 -24t24.5 -10h452q14 0 24.5 -10.5t10.5 -24.5v-201q0 -14 -10 -24.5t-25 -10.5h-740q-14 0 -24.5 10.5t-10.5 24.5zM144.5 1116q-3.5 8 5.5 19l199 252q9 12 25.5 20t30.5 8h135q14 0 30.5 -8t25.5 -20l202 -250q9 -11 5 -19t-18 -8h-208q-14 0 -31 7.5 t-26 19.5l-26 31q-8 11 -21.5 10.5t-21.5 -12.5l-24 -31q-8 -11 -24 -19t-31 -8h-209q-15 0 -18.5 8z" />
<glyph unicode="&#xeb;" horiz-adv-x="992" d="M77 35v995q0 14 10 24t25 10h740q14 0 24.5 -10t10.5 -24v-199q0 -14 -10 -24t-25 -10h-452q-14 0 -24.5 -10.5t-10.5 -24.5v-61q0 -14 10.5 -24.5t24.5 -10.5h394q14 0 24.5 -10.5t10.5 -24.5v-201q0 -14 -10 -24.5t-25 -10.5h-394q-14 0 -24.5 -10t-10.5 -24v-56 q0 -14 10.5 -24t24.5 -10h452q14 0 24.5 -10.5t10.5 -24.5v-201q0 -14 -10 -24.5t-25 -10.5h-740q-14 0 -24.5 10.5t-10.5 24.5zM168 1265q0 29 10.5 55t30.5 45t45.5 30t56.5 11q61 0 100.5 -40.5t39.5 -100.5q0 -61 -39.5 -101t-100.5 -40q-31 0 -56.5 11t-45.5 30 t-30.5 44.5t-10.5 55.5zM493 1265q0 29 11 55t29.5 45t45 30t56.5 11q60 0 101 -40.5t41 -100.5q0 -61 -41 -101t-101 -40q-61 0 -101.5 40t-40.5 101z" />
<glyph unicode="&#xec;" horiz-adv-x="494" d="M-116 1290q-25 21 4 35l209 90q13 6 29.5 1.5t24.5 -16.5l203 -260q8 -11 4 -19t-18 -8h-185q-14 0 -32.5 6t-29.5 15zM90 35v993q0 14 9.5 24.5t25.5 10.5h219q15 0 25.5 -10.5t10.5 -24.5v-993q0 -14 -10.5 -24.5t-25.5 -10.5h-219q-16 0 -25.5 10.5t-9.5 24.5z" />
<glyph unicode="&#xed;" horiz-adv-x="494" d="M90 35v993q0 14 9.5 24.5t25.5 10.5h219q15 0 25.5 -10.5t10.5 -24.5v-993q0 -14 -10.5 -24.5t-25.5 -10.5h-219q-16 0 -25.5 10.5t-9.5 24.5zM100.5 1120.5q-4.5 7.5 5.5 19.5l201 260q8 11 24.5 16t29.5 -1l209 -90q29 -14 4 -35l-208 -156q-11 -9 -29 -15t-33 -6h-185 q-14 0 -18.5 7.5z" />
<glyph unicode="&#xee;" horiz-adv-x="494" d="M-95.5 1116q-3.5 8 5.5 19l199 252q9 12 25.5 20t30.5 8h135q14 0 30.5 -8t25.5 -20l202 -250q9 -11 5 -19t-18 -8h-208q-14 0 -30.5 7.5t-26.5 19.5l-26 31q-8 11 -21.5 10.5t-21.5 -12.5l-24 -31q-8 -11 -24 -19t-31 -8h-209q-15 0 -18.5 8zM90 35v993q0 14 9.5 24.5 t25.5 10.5h219q15 0 25.5 -10.5t10.5 -24.5v-993q0 -14 -10.5 -24.5t-25.5 -10.5h-219q-16 0 -25.5 10.5t-9.5 24.5z" />
<glyph unicode="&#xef;" horiz-adv-x="494" d="M-71 1265q0 29 10.5 55t30.5 45t46 30t56 11q61 0 100.5 -40.5t39.5 -100.5q0 -61 -39.5 -101t-100.5 -40q-30 0 -56 11t-46 30t-30.5 44.5t-10.5 55.5zM90 35v993q0 14 9.5 24.5t25.5 10.5h219q15 0 25.5 -10.5t10.5 -24.5v-993q0 -14 -10.5 -24.5t-25.5 -10.5h-219 q-16 0 -25.5 10.5t-9.5 24.5zM254 1265q0 29 11 55t30 45t45 30t57 11q60 0 100.5 -40.5t40.5 -100.5q0 -61 -40.5 -101t-100.5 -40q-61 0 -102 40t-41 101z" />
<glyph unicode="&#xf0;" horiz-adv-x="1186" d="M21 429v197q0 16 9 25t25 9h37q14 0 24 10t10 25v335q0 16 10 25t25 9h396q228 0 374 -133q79 -73 119.5 -173.5t40.5 -225.5q0 -113 -35 -208t-100 -167q-6 -6 -10.5 -9.5t-7.5 -6.5l-7 -8l-8 -7q-3 -2 -8.5 -6t-11.5 -8q-69 -55 -156.5 -83.5t-189.5 -28.5h-396 q-16 0 -25.5 10.5t-9.5 24.5v324q0 17 -10 26t-24 9h-37q-16 0 -25 10.5t-9 24.5zM415 302q0 -14 9 -24t25 -10h108q42 0 86 10t78.5 38t57 80t22.5 135t-22.5 134.5t-58 80t-79 38.5t-84.5 10h-108q-16 0 -25 -9.5t-9 -25.5v-64q0 -14 9 -24.5t25 -10.5h96q14 0 24.5 -9.5 t10.5 -24.5v-197q0 -14 -10.5 -24.5t-24.5 -10.5h-96q-16 0 -25 -9.5t-9 -25.5v-57z" />
<glyph unicode="&#xf1;" horiz-adv-x="1218" d="M80 35v995q0 14 10 24t25 10h218q14 0 30.5 -7.5t24.5 -19.5l378 -534q9 -11 18.5 -10t9.5 16v521q0 14 10 24t25 10h215q14 0 24.5 -10t10.5 -24v-995q0 -14 -10 -24.5t-25 -10.5h-215q-15 0 -31 9t-24 20l-380 534q-8 11 -18 9t-10 -17v-520q0 -14 -10 -24.5t-24 -10.5 h-217q-14 0 -24.5 10.5t-10.5 24.5zM246 1194q10 34 26 70.5t39 67t55 50.5t76 21q51 1 86.5 -20t64 -39t52.5 -20t52 36q8 11 22.5 16.5t28.5 0.5l119 -44q14 -5 21 -18.5t2 -27.5q-13 -38 -32.5 -72t-46 -60.5t-59.5 -41.5t-75 -13q-40 3 -70.5 24.5t-57 38t-49.5 16 t-49 -39.5q-9 -12 -23.5 -18.5t-29.5 -3.5l-127 35q-15 2 -22.5 15.5t-2.5 26.5z" />
<glyph unicode="&#xf2;" horiz-adv-x="1203" d="M32 532q0 114 43.5 214t118 175t174.5 118.5t213 43.5q114 0 214.5 -43.5t175.5 -118.5t118 -175.5t43 -213.5t-43 -213.5t-118 -175.5t-175.5 -118.5t-214.5 -43.5q-113 0 -213 43.5t-174.5 118.5t-118 175.5t-43.5 213.5zM288 1290q-25 21 5 35l209 90q13 6 29 1.5 t24 -16.5l203 -260q8 -11 4.5 -19t-17.5 -8h-186q-14 0 -32 6t-30 15zM320 532q0 -55 20.5 -104.5t56 -87.5t83.5 -60.5t101 -22.5q54 0 102 22.5t84.5 60.5t57 87.5t20.5 104.5q0 54 -20.5 104.5t-57 87t-84.5 59.5t-102 23q-53 0 -101 -23t-83.5 -59.5t-56 -87 t-20.5 -104.5z" />
<glyph unicode="&#xf3;" horiz-adv-x="1203" d="M32 532q0 114 43.5 214t118 175t174.5 118.5t213 43.5q114 0 214.5 -43.5t175.5 -118.5t118 -175.5t43 -213.5t-43 -213.5t-118 -175.5t-175.5 -118.5t-214.5 -43.5q-113 0 -213 43.5t-174.5 118.5t-118 175.5t-43.5 213.5zM320 532q0 -55 20.5 -104.5t56 -87.5 t83.5 -60.5t101 -22.5q54 0 102 22.5t84.5 60.5t57 87.5t20.5 104.5q0 54 -20.5 104.5t-57 87t-84.5 59.5t-102 23q-53 0 -101 -23t-83.5 -59.5t-56 -87t-20.5 -104.5zM397.5 1120.5q-4.5 7.5 5.5 19.5l201 260q8 11 24.5 16t28.5 -1l210 -90q29 -14 4 -35l-208 -156 q-11 -9 -29.5 -15t-32.5 -6h-185q-14 0 -18.5 7.5z" />
<glyph unicode="&#xf4;" horiz-adv-x="1203" d="M32 532q0 114 43.5 214t118 175t174.5 118.5t213 43.5q114 0 214.5 -43.5t175.5 -118.5t118 -175.5t43 -213.5t-43 -213.5t-118 -175.5t-175.5 -118.5t-214.5 -43.5q-113 0 -213 43.5t-174.5 118.5t-118 175.5t-43.5 213.5zM251 1116q-4 8 5 19l199 252q9 12 26 20t31 8 h133q15 0 32 -8t25 -20l203 -250q8 -11 4.5 -19t-18.5 -8h-207q-14 0 -31.5 7.5t-25.5 19.5l-26 31q-9 11 -22 10.5t-22 -12.5l-23 -31q-9 -11 -25 -19t-30 -8h-210q-14 0 -18 8zM320 532q0 -55 20.5 -104.5t56 -87.5t83.5 -60.5t101 -22.5q54 0 102 22.5t84.5 60.5t57 87.5 t20.5 104.5q0 54 -20.5 104.5t-57 87t-84.5 59.5t-102 23q-53 0 -101 -23t-83.5 -59.5t-56 -87t-20.5 -104.5z" />
<glyph unicode="&#xf5;" horiz-adv-x="1203" d="M32 532q0 114 43.5 214t118 175t174.5 118.5t213 43.5q114 0 214.5 -43.5t175.5 -118.5t118 -175.5t43 -213.5t-43 -213.5t-118 -175.5t-175.5 -118.5t-214.5 -43.5q-113 0 -213 43.5t-174.5 118.5t-118 175.5t-43.5 213.5zM246 1194q10 34 26 70.5t39 67t55 50.5t76 21 q51 1 86.5 -20t64 -39t52.5 -20t52 36q8 11 22.5 16.5t28.5 0.5l119 -44q14 -5 21 -18.5t2 -27.5q-13 -38 -32.5 -72t-46 -60.5t-59.5 -41.5t-75 -13q-40 3 -70.5 24.5t-57 38t-49.5 16t-49 -39.5q-9 -12 -23.5 -18.5t-29.5 -3.5l-127 35q-15 2 -22.5 15.5t-2.5 26.5z M320 532q0 -55 20.5 -104.5t56 -87.5t83.5 -60.5t101 -22.5q54 0 102 22.5t84.5 60.5t57 87.5t20.5 104.5q0 54 -20.5 104.5t-57 87t-84.5 59.5t-102 23q-53 0 -101 -23t-83.5 -59.5t-56 -87t-20.5 -104.5z" />
<glyph unicode="&#xf6;" horiz-adv-x="1203" d="M32 532q0 114 43.5 214t118 175t174.5 118.5t213 43.5q114 0 214.5 -43.5t175.5 -118.5t118 -175.5t43 -213.5t-43 -213.5t-118 -175.5t-175.5 -118.5t-214.5 -43.5q-113 0 -213 43.5t-174.5 118.5t-118 175.5t-43.5 213.5zM276 1265q0 29 11 55t30.5 45t46 30t56.5 11 q61 0 100 -40.5t39 -100.5q0 -61 -39 -101t-100 -40q-30 0 -56.5 11t-46 30t-30.5 44.5t-11 55.5zM320 532q0 -55 20.5 -104.5t56 -87.5t83.5 -60.5t101 -22.5q54 0 102 22.5t84.5 60.5t57 87.5t20.5 104.5q0 54 -20.5 104.5t-57 87t-84.5 59.5t-102 23q-53 0 -101 -23 t-83.5 -59.5t-56 -87t-20.5 -104.5zM602 1265q0 29 11 55t30 45t45 30t57 11q59 0 99.5 -40.5t40.5 -100.5q0 -61 -40.5 -101t-99.5 -40q-61 0 -102 40t-41 101z" />
<glyph unicode="&#xf7;" horiz-adv-x="889" d="M33 441v197q0 17 10.5 26t24.5 9h710q16 0 25.5 -9t9.5 -26v-197q0 -14 -9.5 -25t-25.5 -11h-710q-14 0 -24.5 10.5t-10.5 25.5zM279 222q0 60 41.5 101.5t102.5 41.5t102.5 -41.5t41.5 -101.5q0 -61 -41.5 -102t-102.5 -41t-102.5 41t-41.5 102zM279 859 q0 61 41.5 102.5t102.5 41.5t102.5 -41.5t41.5 -102.5q0 -29 -11 -55.5t-30.5 -46.5t-45.5 -31.5t-57 -11.5q-30 0 -56.5 11.5t-46 31.5t-30.5 46.5t-11 55.5z" />
<glyph unicode="&#xf8;" horiz-adv-x="1229" d="M35 532q0 114 43.5 214t118 175t174.5 118.5t213 43.5q125 0 237 -53q13 -6 28.5 -4t25.5 13l39 46q10 11 24 12t26 -9l125 -111q11 -10 12 -24t-9 -25l-39 -45q-10 -12 -11 -27t7 -29q42 -65 64 -139.5t22 -155.5q0 -113 -43 -213.5t-118 -175.5t-175.5 -118.5 t-214.5 -43.5q-62 0 -121 14t-112 38q-13 6 -28.5 3t-25.5 -14l-43 -47q-10 -11 -23.5 -12t-25.5 9l-126 110q-12 8 -13 22t9 25l43 51q10 12 10.5 28t-7.5 28q-41 65 -63.5 139t-22.5 157zM323 532q0 -29 7 -66q3 -14 14 -16t21 9l273 309q10 11 7.5 21t-17.5 13 q-11 3 -21.5 3.5t-22.5 0.5q-54 0 -101.5 -23t-83 -59.5t-56 -87t-20.5 -104.5zM528 274.5q3 -9.5 17 -12.5q19 -4 39 -5q54 0 102 22.5t84.5 60.5t57 87.5t20.5 104.5q0 30 -7 63q-3 14 -13.5 16t-20.5 -9l-272 -307q-10 -11 -7 -20.5z" />
<glyph unicode="&#xf9;" horiz-adv-x="1145" d="M79 439v589q0 14 10 24.5t25 10.5h219q14 0 24.5 -10.5t10.5 -24.5v-589q0 -57 18 -94t45 -58t57.5 -30t55.5 -9t55.5 9t56.5 30t44.5 58.5t18.5 93.5v589q0 14 9.5 24.5t24.5 10.5h220q14 0 24 -10.5t10 -24.5v-589q0 -103 -32.5 -187t-93.5 -144t-147 -93t-190 -33 q-105 0 -190.5 33t-146.5 93t-94.5 144t-33.5 187zM256 1290q-25 21 5 35l209 90q13 6 29 1.5t24 -16.5l203 -260q8 -11 4.5 -19t-17.5 -8h-185q-15 0 -33 6t-30 15z" />
<glyph unicode="&#xfa;" horiz-adv-x="1145" d="M79 439v589q0 14 10 24.5t25 10.5h219q14 0 24.5 -10.5t10.5 -24.5v-589q0 -57 18 -94t45 -58t57.5 -30t55.5 -9t55.5 9t56.5 30t44.5 58.5t18.5 93.5v589q0 14 9.5 24.5t24.5 10.5h220q14 0 24 -10.5t10 -24.5v-589q0 -103 -32.5 -187t-93.5 -144t-147 -93t-190 -33 q-105 0 -190.5 33t-146.5 93t-94.5 144t-33.5 187zM344.5 1120.5q-4.5 7.5 6.5 19.5l200 260q8 11 24.5 16t29.5 -1l209 -90q29 -14 5 -35l-208 -156q-12 -9 -30 -15t-33 -6h-184q-15 0 -19.5 7.5z" />
<glyph unicode="&#xfb;" horiz-adv-x="1145" d="M79 439v589q0 14 10 24.5t25 10.5h219q14 0 24.5 -10.5t10.5 -24.5v-589q0 -57 18 -94t45 -58t57.5 -30t55.5 -9t55.5 9t56.5 30t44.5 58.5t18.5 93.5v589q0 14 9.5 24.5t24.5 10.5h220q14 0 24 -10.5t10 -24.5v-589q0 -103 -32.5 -187t-93.5 -144t-147 -93t-190 -33 q-105 0 -190.5 33t-146.5 93t-94.5 144t-33.5 187zM213 1116q-4 8 5 19l199 252q9 12 26 20t31 8h134q14 0 31 -8t26 -20l202 -250q8 -11 4.5 -19t-18.5 -8h-208q-14 0 -30.5 7.5t-25.5 19.5l-26 31q-8 11 -21.5 10.5t-22.5 -12.5l-23 -31q-9 -11 -25 -19t-30 -8h-210 q-14 0 -18 8z" />
<glyph unicode="&#xfc;" horiz-adv-x="1145" d="M79 439v589q0 14 10 24.5t25 10.5h219q14 0 24.5 -10.5t10.5 -24.5v-589q0 -57 18 -94t45 -58t57.5 -30t55.5 -9t55.5 9t56.5 30t44.5 58.5t18.5 93.5v589q0 14 9.5 24.5t24.5 10.5h220q14 0 24 -10.5t10 -24.5v-589q0 -103 -32.5 -187t-93.5 -144t-147 -93t-190 -33 q-105 0 -190.5 33t-146.5 93t-94.5 144t-33.5 187zM237 1265q0 29 11 55t30.5 45t46 30t56.5 11q61 0 100 -40.5t39 -100.5q0 -61 -39 -101t-100 -40q-30 0 -56.5 11t-46 30t-30.5 44.5t-11 55.5zM563 1265q0 29 10.5 55t30 45t45 30t56.5 11q60 0 100.5 -40.5t40.5 -100.5 q0 -61 -40.5 -101t-100.5 -40q-61 0 -101.5 40t-40.5 101z" />
<glyph unicode="&#xfd;" horiz-adv-x="1030" d="M-33.5 1049q4.5 14 19.5 14h258q14 0 30 -8.5t23 -22.5l179 -311q7 -11 17 -11.5t17 11.5l178 311q7 13 22.5 22t29.5 9h262q14 0 21 -10t-5 -31l-363 -589q-7 -13 -13.5 -31.5t-6.5 -33.5v-333q0 -14 -10 -24.5t-24 -10.5h-220q-14 0 -24.5 10.5t-10.5 24.5v331 q0 15 -5 34.5t-12 31.5q-88 149 -178.5 293.5t-181.5 296.5q-7 13 -2.5 27zM301.5 1120.5q-4.5 7.5 5.5 19.5l201 260q8 11 24.5 16t29.5 -1l208 -90q29 -14 5 -35l-208 -156q-11 -9 -29.5 -15t-32.5 -6h-185q-14 0 -18.5 7.5z" />
<glyph unicode="&#xfe;" horiz-adv-x="1033" d="M77 35v995q0 16 10 25t25 9h220q14 0 24 -9t10 -25v-69q0 -14 10.5 -24t24.5 -10h156q81 0 153 -31.5t125 -84.5t84.5 -125.5t31.5 -153.5t-31.5 -152.5t-84.5 -125t-125 -84t-153 -30.5h-156q-14 0 -24.5 -9.5t-10.5 -26.5v-69q0 -14 -10 -24.5t-24 -10.5h-220 q-14 0 -24.5 10.5t-10.5 24.5zM366 442q0 -14 10.5 -24.5t24.5 -10.5h156q22 0 41.5 11t33 29t22.5 40.5t9 44.5q0 24 -9 46.5t-22.5 39.5t-33 28t-41.5 11h-156q-14 0 -24.5 -9.5t-10.5 -24.5v-181z" />
<glyph unicode="&#xff;" horiz-adv-x="1030" d="M-33.5 1049q4.5 14 19.5 14h258q14 0 30 -8.5t23 -22.5l179 -311q7 -11 17 -11.5t17 11.5l178 311q7 13 22.5 22t29.5 9h262q14 0 21 -10t-5 -31l-363 -589q-7 -13 -13.5 -31.5t-6.5 -33.5v-333q0 -14 -10 -24.5t-24 -10.5h-220q-14 0 -24.5 10.5t-10.5 24.5v331 q0 15 -5 34.5t-12 31.5q-88 149 -178.5 293.5t-181.5 296.5q-7 13 -2.5 27zM192 1265q0 29 11 55t30.5 45t45.5 30t57 11q61 0 100.5 -40.5t39.5 -100.5q0 -61 -39.5 -101t-100.5 -40q-31 0 -57 11t-45.5 30t-30.5 44.5t-11 55.5zM518 1265q0 29 11 55t29.5 45t45 30 t56.5 11q60 0 100.5 -40.5t40.5 -100.5q0 -61 -40.5 -101t-100.5 -40q-61 0 -101.5 40t-40.5 101z" />
<glyph unicode="&#x152;" horiz-adv-x="1686" d="M43 532q0 114 43 214t118 175t175.5 118.5t214.5 43.5q26 0 52 -2.5t51 -7.5q14 -3 33.5 -6t35.5 -3h726q14 0 24 -10t10 -24v-200q0 -14 -9.5 -24.5t-24.5 -10.5h-453q-16 0 -25 -10t-9 -25v-63q0 -15 9.5 -25t24.5 -10h394q15 0 25 -10.5t10 -24.5v-201 q0 -14 -10 -24.5t-25 -10.5h-394q-16 0 -25 -10t-9 -25v-51q0 -14 9.5 -24t24.5 -10h453q14 0 24 -10.5t10 -24.5v-201q0 -14 -9.5 -24.5t-24.5 -10.5h-726q-16 0 -35.5 -2t-33.5 -5q-54 -11 -103 -12q-114 0 -214.5 43.5t-175.5 118.5t-118 175.5t-43 213.5zM332 532 q0 -65 20 -117.5t56 -88.5t83 -56t103 -20q32 0 55 6.5t39 15.5q13 7 21 24t8 31v410q0 14 -8 31t-21 24q-18 10 -41 16t-53 6q-56 0 -103 -18t-83 -54t-56 -88.5t-20 -121.5z" />
<glyph unicode="&#x153;" horiz-adv-x="1686" d="M43 532q0 114 43 214t118 175t175.5 118.5t214.5 43.5q26 0 52 -2.5t51 -7.5q14 -3 33.5 -6t35.5 -3h726q14 0 24 -10t10 -24v-200q0 -14 -9.5 -24.5t-24.5 -10.5h-453q-16 0 -25 -10t-9 -25v-63q0 -15 9.5 -25t24.5 -10h394q15 0 25 -10.5t10 -24.5v-201 q0 -14 -10 -24.5t-25 -10.5h-394q-16 0 -25 -10t-9 -25v-51q0 -14 9.5 -24t24.5 -10h453q14 0 24 -10.5t10 -24.5v-201q0 -14 -9.5 -24.5t-24.5 -10.5h-726q-16 0 -35.5 -2t-33.5 -5q-54 -11 -103 -12q-114 0 -214.5 43.5t-175.5 118.5t-118 175.5t-43 213.5zM332 532 q0 -65 20 -117.5t56 -88.5t83 -56t103 -20q32 0 55 6.5t39 15.5q13 7 21 24t8 31v410q0 14 -8 31t-21 24q-18 10 -41 16t-53 6q-56 0 -103 -18t-83 -54t-56 -88.5t-20 -121.5z" />
<glyph unicode="&#x178;" horiz-adv-x="1030" d="M-33.5 1049q4.5 14 19.5 14h258q14 0 30 -8.5t23 -22.5l179 -311q7 -11 17 -11.5t17 11.5l178 311q7 13 22.5 22t29.5 9h262q14 0 21 -10t-5 -31l-363 -589q-7 -13 -13.5 -31.5t-6.5 -33.5v-333q0 -14 -10 -24.5t-24 -10.5h-220q-14 0 -24.5 10.5t-10.5 24.5v331 q0 15 -5 34.5t-12 31.5q-88 149 -178.5 293.5t-181.5 296.5q-7 13 -2.5 27zM192 1265q0 29 11 55t30.5 45t45.5 30t57 11q61 0 100.5 -40.5t39.5 -100.5q0 -61 -39.5 -101t-100.5 -40q-31 0 -57 11t-45.5 30t-30.5 44.5t-11 55.5zM518 1265q0 29 11 55t29.5 45t45 30 t56.5 11q60 0 100.5 -40.5t40.5 -100.5q0 -61 -40.5 -101t-100.5 -40q-61 0 -101.5 40t-40.5 101z" />
<glyph unicode="&#x2c6;" horiz-adv-x="626" d="M-32 1014q-4 8 4 20l200 251q8 11 25 19.5t32 8.5h133q14 0 31 -8t26 -20l202 -250q8 -11 5 -19.5t-18 -8.5h-208q-14 0 -31 8.5t-26 19.5l-26 31q-9 11 -22 10.5t-22 -12.5l-23 -30q-9 -12 -25 -20t-30 -8h-209q-14 0 -18 8z" />
<glyph unicode="&#x2dc;" horiz-adv-x="687" d="M18 1092q10 35 26 71.5t39 67t55 50t76 20.5q51 2 86.5 -19t64 -39.5t52.5 -20.5t51 36q8 11 23 16t28 1l119 -43q14 -6 21 -19t3 -28q-13 -38 -33 -72t-46 -60t-59.5 -41.5t-74.5 -12.5q-40 3 -71 24t-57 38t-49.5 16t-49.5 -40q-8 -12 -22.5 -18.5t-29.5 -3.5l-128 35 q-14 3 -21.5 16t-2.5 26z" />
<glyph unicode="&#x2000;" horiz-adv-x="709" />
<glyph unicode="&#x2001;" horiz-adv-x="1418" />
<glyph unicode="&#x2002;" horiz-adv-x="709" />
<glyph unicode="&#x2003;" horiz-adv-x="1418" />
<glyph unicode="&#x2004;" horiz-adv-x="472" />
<glyph unicode="&#x2005;" horiz-adv-x="354" />
<glyph unicode="&#x2006;" horiz-adv-x="236" />
<glyph unicode="&#x2007;" horiz-adv-x="236" />
<glyph unicode="&#x2008;" horiz-adv-x="177" />
<glyph unicode="&#x2009;" horiz-adv-x="283" />
<glyph unicode="&#x200a;" horiz-adv-x="78" />
<glyph unicode="&#x2010;" horiz-adv-x="594" d="M31 448v196q0 16 10 25.5t24 9.5h464q14 0 24.5 -9.5t10.5 -25.5v-196q0 -14 -10.5 -24.5t-24.5 -10.5h-464q-14 0 -24 10t-10 25z" />
<glyph unicode="&#x2011;" horiz-adv-x="594" d="M31 448v196q0 16 10 25.5t24 9.5h464q14 0 24.5 -9.5t10.5 -25.5v-196q0 -14 -10.5 -24.5t-24.5 -10.5h-464q-14 0 -24 10t-10 25z" />
<glyph unicode="&#x2012;" horiz-adv-x="594" d="M31 448v196q0 16 10 25.5t24 9.5h464q14 0 24.5 -9.5t10.5 -25.5v-196q0 -14 -10.5 -24.5t-24.5 -10.5h-464q-14 0 -24 10t-10 25z" />
<glyph unicode="&#x2013;" horiz-adv-x="717" d="M18 448v196q0 14 10 24.5t25 10.5h578q14 0 24.5 -10t10.5 -25v-196q0 -14 -10.5 -24.5t-24.5 -10.5h-578q-15 0 -25 10t-10 25z" />
<glyph unicode="&#x2014;" horiz-adv-x="1069" d="M25 448v196q0 14 9 24.5t26 10.5h892q14 0 25 -10t11 -25v-196q0 -14 -11 -24.5t-25 -10.5h-892q-17 0 -26 10t-9 25z" />
<glyph unicode="&#x2018;" horiz-adv-x="357" d="M22 807q0 96 53.5 171.5t163.5 120.5q14 6 29 1t25 -17l26 -37q8 -12 6.5 -26.5t-13.5 -24.5q-16 -17 -28.5 -31.5t-22.5 -27.5q-9 -11 -4 -23.5t16 -20.5q25 -16 38 -45.5t16 -62.5q3 -63 -39 -106t-103 -45q-38 -2 -68 12t-51 37.5t-32.5 55.5t-11.5 69z" />
<glyph unicode="&#x2019;" horiz-adv-x="357" d="M32 956q-3 62 39.5 104.5t103.5 46.5q36 1 66.5 -12.5t51.5 -38t32.5 -56.5t11.5 -68q0 -96 -53.5 -171t-162.5 -120q-13 -6 -29.5 -1t-24.5 17l-27 38q-7 11 -5.5 26t13.5 25q17 14 29 29t23 29q9 12 3 23.5t-17 20.5q-25 16 -38 45t-16 63z" />
<glyph unicode="&#x201a;" horiz-adv-x="355" d="M19 131q-1 30 9 58.5t29.5 50t46.5 33.5t57 13q57 3 98.5 -30.5t54.5 -87.5q4 -13 6 -28.5t2 -31.5q0 -39 -14.5 -79t-41.5 -75.5t-68 -63.5t-94 -44q-12 -6 -26 1t-20 21l-32 75q-7 13 -1 26t18 20l10.5 3.5t8.5 3.5q27 11 3 32q-42 36 -46 103z" />
<glyph unicode="&#x201c;" horiz-adv-x="705" d="M21 807q0 96 54 171.5t164 120.5q12 6 28 1t24 -17l28 -37q7 -12 5.5 -26.5t-13.5 -24.5q-16 -17 -28 -31.5t-24 -27.5q-8 -11 -3 -23.5t16 -20.5q26 -16 39 -45.5t15 -62.5q3 -63 -39.5 -106t-103.5 -45q-37 -2 -67 12t-51.5 37.5t-32.5 55.5t-11 69zM362 807 q0 96 54.5 171.5t163.5 120.5q13 6 29.5 1t23.5 -17l27 -37q7 -12 6 -26.5t-13 -24.5q-16 -17 -28.5 -31.5t-23.5 -27.5q-9 -11 -4 -23.5t16 -20.5q27 -16 40 -45.5t14 -62.5q3 -63 -39 -106t-103 -45q-38 -2 -68 12t-50.5 37.5t-32.5 55.5t-12 69z" />
<glyph unicode="&#x201d;" horiz-adv-x="705" d="M32 956q-3 62 39.5 104.5t103.5 46.5q36 1 66.5 -12.5t51.5 -38t32.5 -56.5t11.5 -68q0 -96 -54 -171t-164 -120q-13 -6 -29 -1t-23 17l-27 38q-8 11 -6.5 26t13.5 25q16 14 29 29t23 29q8 12 3 23.5t-16 20.5q-26 16 -39.5 45t-14.5 63zM373 956q-2 62 40 104.5 t103 46.5q36 1 66.5 -12.5t52 -38t33 -56.5t11.5 -68q0 -96 -54.5 -171t-163.5 -120q-13 -6 -29 -1t-24 17l-27 38q-7 11 -6 26t13 25q17 14 29.5 29t23.5 29q8 12 3 23.5t-17 20.5q-26 16 -39 45t-15 63z" />
<glyph unicode="&#x201e;" horiz-adv-x="723" d="M32 147q-3 62 39.5 105t103.5 46q36 2 66.5 -12t51.5 -38t32.5 -56t11.5 -68q0 -96 -54 -171.5t-164 -120.5q-13 -5 -29 0t-23 17l-27 37q-8 12 -6.5 27t13.5 25q16 14 29 28.5t23 29.5q8 11 3 23t-16 20q-26 16 -39.5 45.5t-14.5 62.5zM373 147q-2 62 40 105t103 46 q36 2 66.5 -12t52 -38t33 -56t11.5 -68q0 -96 -54.5 -171.5t-163.5 -120.5q-13 -5 -29 0t-24 17l-27 37q-7 12 -6 27t13 25q17 14 29.5 28.5t23.5 29.5q8 11 3 23t-17 20q-26 16 -39 45.5t-15 62.5z" />
<glyph unicode="&#x2022;" horiz-adv-x="526" d="M50 583q0 40 16 77.5t42.5 64.5t63 43t78.5 16q40 0 77.5 -16t64.5 -43t43 -64t16 -78q0 -42 -16 -78.5t-43 -63t-64 -42.5t-78 -16q-42 0 -78.5 16t-63 42.5t-42.5 63t-16 78.5z" />
<glyph unicode="&#x2026;" horiz-adv-x="1056" d="M38 140q0 30 11.5 56t32 46.5t47 32t57.5 11.5t58.5 -11.5t47.5 -32t32 -46.5t12 -56q0 -31 -12 -58.5t-32 -48t-47.5 -32t-58.5 -11.5t-57.5 11.5t-47 32t-32 48t-11.5 58.5zM380 140q0 30 11.5 56t32 46.5t47 32t57.5 11.5q30 0 57.5 -11.5t48.5 -32t32 -46.5t11 -56 q0 -31 -11 -58.5t-32 -48t-48.5 -32t-57.5 -11.5q-31 0 -57.5 11.5t-47 32t-32 48t-11.5 58.5zM721 140q0 30 12 56t32 46.5t46.5 32t56.5 11.5q31 0 58.5 -11.5t48 -32t32 -46.5t11.5 -56q0 -31 -11.5 -58.5t-32 -48t-48 -32t-58.5 -11.5q-30 0 -56.5 11.5t-46.5 32t-32 48 t-12 58.5z" />
<glyph unicode="&#x202f;" horiz-adv-x="283" />
<glyph unicode="&#x2039;" horiz-adv-x="590" d="M31 533.5q0 17.5 7 30.5l191 300q7 11 22 19.5t29 8.5h245q16 0 20.5 -8.5t-4.5 -19.5q-21 -32 -46 -70t-51.5 -77.5t-52 -78.5t-48.5 -74q-9 -11 -9 -28.5t9 -29.5l201 -298q7 -11 3.5 -20t-19.5 -9h-248q-14 0 -29 8.5t-25 20.5l-188 297q-7 11 -7 28.5z" />
<glyph unicode="&#x203a;" horiz-adv-x="588" d="M39.5 188q-4.5 9 2.5 20l202 298q7 12 7 29t-7 29q-23 35 -49 74t-52.5 78.5t-52 77t-45.5 70.5q-7 11 -2.5 19.5t18.5 8.5h244q15 0 31 -8.5t23 -19.5l189 -300q7 -12 7 -30t-7 -29l-189 -297q-7 -11 -23 -20t-31 -9h-247q-14 0 -18.5 9z" />
<glyph unicode="&#x205f;" horiz-adv-x="354" />
<glyph unicode="&#x20ac;" horiz-adv-x="996" d="M26 373v104q0 14 10.5 24.5t24.5 10.5h25q14 0 24.5 4t10.5 22q0 17 -10.5 21t-24.5 4h-25q-14 0 -24.5 10t-10.5 25v103q0 14 10.5 24.5t24.5 10.5h61q14 0 26.5 10t16.5 24q18 66 55 122.5t91 98t124 66t152 24.5q86 0 150.5 -26.5t109.5 -62t73.5 -75t42.5 -65.5 q7 -13 2.5 -26.5t-17.5 -21.5l-160 -88q-13 -7 -26.5 -3t-21.5 15q-9 15 -23.5 31t-33 29.5t-43 23t-53.5 9.5q-33 0 -65 -13t-51 -40q-8 -12 -1 -22t21 -10h146q14 0 24.5 -10t10.5 -25v-103q0 -14 -10 -24.5t-25 -10.5h-205q-15 0 -25 -3t-10 -22q0 -20 10 -23t25 -3h205 q14 0 24.5 -10.5t10.5 -24.5v-104q0 -14 -10 -24t-25 -10h-171q-14 0 -21.5 -10t2.5 -22q19 -29 56.5 -48t83.5 -19q32 0 56 9.5t42.5 24t30.5 31.5t20 31q7 13 19.5 19t25.5 0l173 -75q12 -7 19 -20t0 -26q-13 -29 -40 -72t-73 -83t-113 -69t-160 -29q-65 0 -134.5 19 t-130 58t-107 100t-65.5 147q-3 15 -15.5 24.5t-26.5 9.5h-47q-14 0 -24.5 10t-10.5 24z" />
<glyph unicode="&#x2122;" horiz-adv-x="1257" d="M40 881v150q0 14 10.5 24.5t24.5 10.5h443q14 0 24 -10t10 -25v-150q0 -14 -10 -24.5t-24 -10.5h-74q-14 0 -25 -10t-11 -24v-300q0 -14 -9 -24.5t-26 -10.5h-154q-14 0 -24 10t-10 25v300q0 14 -10 24t-25 10h-75q-14 0 -24.5 10.5t-10.5 24.5zM595 512v519 q0 14 10 24.5t25 10.5h79q14 0 30 -8.5t23 -22.5l111 -197q7 -12 17 -12t17 12l110 197q7 13 21.5 22t28.5 9h80q15 0 25 -10.5t10 -24.5v-519q0 -14 -10 -24.5t-25 -10.5h-142q-15 0 -25 10t-10 25v71q0 32 -21 7l-40 -59q-9 -11 -20.5 -11.5t-18.5 11.5l-41 59 q-9 11 -14.5 10t-5.5 -16v-72q0 -14 -10.5 -24.5t-24.5 -10.5h-144q-14 0 -24.5 10t-10.5 25z" />
<glyph unicode="&#x25fc;" horiz-adv-x="1061" d="M0 0v1061h1061v-1061h-1061z" />
</font>
</defs>
</svg>
